<?xml version="1.0" encoding="UTF-8" standalone="no"?>
<svg
   xmlns:dc="http://purl.org/dc/elements/1.1/"
   xmlns:cc="http://creativecommons.org/ns#"
   xmlns:rdf="http://www.w3.org/1999/02/22-rdf-syntax-ns#"
   xmlns:svg="http://www.w3.org/2000/svg"
   xmlns="http://www.w3.org/2000/svg"
   xmlns:sodipodi="http://sodipodi.sourceforge.net/DTD/sodipodi-0.dtd"
   xmlns:inkscape="http://www.inkscape.org/namespaces/inkscape"
   width="20mm"
   height="20mm"
   viewBox="0 0 19.999999 20"
   version="1.1"
   id="svg8"
   inkscape:version="1.0.2-2 (e86c870879, 2021-01-15)"
   sodipodi:docname="slab_socialNetworks_light.svg">
  <defs
     id="defs2" />
  <sodipodi:namedview
     id="base"
     pagecolor="#7e99b9"
     bordercolor="#f72585"
     borderopacity="1"
     inkscape:pageopacity="0.4"
     inkscape:pageshadow="2"
     inkscape:zoom="8.0000001"
     inkscape:cx="17.309176"
     inkscape:cy="50.414554"
     inkscape:document-units="mm"
     inkscape:current-layer="layer5"
     showgrid="true"
     units="mm"
     inkscape:pagecheckerboard="true"
     borderlayer="true"
     inkscape:showpageshadow="true"
     inkscape:window-width="1920"
     inkscape:window-height="1017"
     inkscape:window-x="-8"
     inkscape:window-y="598"
     inkscape:window-maximized="1"
     inkscape:document-rotation="0"
     fit-margin-top="0"
     fit-margin-left="0"
     fit-margin-right="0"
     fit-margin-bottom="0"
     showborder="true"
     inkscape:snap-page="false"
     inkscape:snap-global="false"
     inkscape:snap-bbox="true"
     inkscape:snap-grids="true">
    <inkscape:grid
       type="xygrid"
       id="grid901"
       spacingx="2.2222199"
       spacingy="2.2222221"
       empspacing="3"
       units="mm"
       empcolor="#00d6e5"
       empopacity="0.8"
       color="#00c2d1"
       opacity="0.4"
       originx="0"
       originy="0" />
    <inkscape:grid
       type="xygrid"
       id="grid903"
       spacingx="2.4999999"
       empspacing="2"
       spacingy="2.4999999"
       color="#ffffff"
       opacity="0.10196078"
       empcolor="#ffffff"
       empopacity="0.4"
       units="mm" />
  </sodipodi:namedview>
  <metadata
     id="metadata5">
    <rdf:RDF>
      <cc:Work
         rdf:about="">
        <dc:format>image/svg+xml</dc:format>
        <dc:type
           rdf:resource="http://purl.org/dc/dcmitype/StillImage" />
        <dc:title></dc:title>
      </cc:Work>
    </rdf:RDF>
  </metadata>
  <g
     inkscape:groupmode="layer"
     id="layer3"
     inkscape:label="gSnapchat"
     style="display:inline">
    <path
       id="Snapchat"
       style="fill:#ffff00;stroke-width:0.0266956"
       d="M 9.8686484,3.5930611 C 8.2641301,3.5639958 6.6556177,4.6841733 6.3199139,6.2858529 6.1913287,7.0298287 6.2525927,7.788602 6.2952242,8.5374615 5.6291218,8.619667 4.9350678,7.9095589 4.3299491,8.5305365 3.7520749,8.9794222 4.2765973,9.737333 4.8332841,9.9000535 5.2868383,10.215622 6.5076568,10.034307 6.1257252,10.89443 5.6168628,11.984241 4.660874,12.959815 3.4338989,13.160957 c -0.6984495,0.34104 0.1805774,0.990819 0.6294848,1.015812 0.5365517,0.118375 1.1208645,0.133301 1.0970247,0.814568 0.3760027,0.597825 1.2075686,-0.06389 1.7796116,0.167436 0.9206765,0.136084 1.4986556,1.043659 2.4266802,1.189488 0.9218288,0.211206 1.8836408,-0.08777 2.6056958,-0.676861 0.59302,-0.537445 1.432115,-0.637442 2.18643,-0.456821 0.728086,0.346933 0.648265,-0.612182 0.949718,-0.854598 0.586593,-0.135944 1.34069,-0.176536 1.693014,-0.732901 0.08758,-0.724579 -1.050356,-0.469891 -1.4211,-0.933277 -0.671836,-0.454625 -1.209106,-1.115137 -1.524655,-1.860622 -0.300312,-0.8616675 0.977252,-0.598561 1.40886,-0.9814618 0.574008,-0.1796551 0.95157,-1.0071274 0.335073,-1.3760334 -0.609471,-0.543258 -1.251014,0.1643893 -1.894629,0.060232 0.06024,-1.1470477 0.214833,-2.4355056 -0.540759,-3.40763 C 12.442577,4.0585308 11.13222,3.5297901 9.8686484,3.5930666 Z"
       inkscape:label="Snapchat" />
  </g>
  <g
     inkscape:groupmode="layer"
     id="layer2"
     inkscape:label="gTwitter"
     style="display:inline">
    <path
       d="M 17.258551,5.4061454 15.94852,5.2335864 16.290537,3.9573365 14.755893,4.3685763 C 14.26535,4.0779511 13.708356,3.9252175 13.132864,3.9252175 c -1.758816,0 -3.1897928,1.4309767 -3.1897928,3.1897925 V 7.5287974 C 7.7478735,7.4094016 5.7271178,6.3679563 4.3473107,4.6300728 L 3.9905632,4.1807329 3.664385,4.6526672 C 3.5352423,4.8394028 3.4257043,5.0407587 3.3386496,5.2508639 3.0680711,5.9041073 3.0201132,6.609849 3.2000925,7.2919996 3.3058656,7.6932711 3.4907183,8.0715048 3.7383707,8.4020026 L 3.2327661,8.5233924 3.3320041,8.9369578 C 3.5957151,10.035 4.4022453,10.889156 5.4377103,11.231173 l -0.4971868,0.582138 0.3234091,0.276226 c 0.4887698,0.417442 1.0841974,0.676612 1.7173934,0.747496 -1.1337057,0.989611 -2.616738,1.589248 -4.239877,1.589248 l 0.1826375,0.126928 c 1.4326384,0.99537 3.1145889,1.521574 4.8641022,1.521574 2.2797053,0 4.4228473,-0.887715 6.0348003,-2.499668 1.611953,-1.611951 2.499668,-3.7552046 2.499668,-6.0347989 V 7.11501 c 0,-0.1500748 -0.01055,-0.3002615 -0.03135,-0.4483432 z m 0,0"
       id="twitter"
       style="fill:#00ffff;stroke-width:0.0283537"
       inkscape:label="twitter" />
  </g>
  <g
     inkscape:groupmode="layer"
     id="layer4"
     inkscape:label="gFacebook"
     style="display:inline">
    <path
       id="facebook"
       style="display:inline;fill:#0000ff;fill-opacity:1;stroke-width:1.93179;stroke-linejoin:bevel;paint-order:stroke markers fill;stop-color:#000000"
       d="m 14.124623,2.430249 c -2.384545,0 -4.016418,1.4557498 -4.016418,4.1282258 V 8.8618419 H 7.4115148 v 3.1239551 h 2.6966902 v 8.014201 l 3.225114,-0.0014 v -8.014201 h 2.688703 L 16.426658,8.8611764 H 13.333319 V 6.8672763 c 0,-0.9040008 0.250128,-1.5200496 1.54667,-1.5200496 l 1.653819,-6.655e-4 V 2.5527049 C 16.247922,2.5155631 15.267827,2.430249 14.124623,2.430249 Z"
       sodipodi:nodetypes="ssccccccccccscccs"
       inkscape:label="facebook" />
  </g>
  <g
     inkscape:groupmode="layer"
     id="layer5"
     inkscape:label="gInstagram"
     style="display:inline">
    <path
       id="instagram"
       style="fill:#ff00ff;fill-opacity:1;stroke-width:5.66929;stroke-linejoin:bevel;paint-order:stroke markers fill;stop-color:#000000"
       d="m 25.196849,10.278713 c -8.225875,0 -14.918136,6.692261 -14.918136,14.918136 v 25.196146 c 0,8.225877 6.692261,14.918135 14.918136,14.918135 h 25.196146 c 8.225877,0 14.918135,-6.692258 14.918135,-14.918135 V 25.196849 c 0,-8.225875 -6.692258,-14.918136 -14.918135,-14.918136 z m 1.37737,7.438084 h 22.441406 c 4.884737,0 8.857422,3.972687 8.857422,8.857422 v 22.441406 c 0,4.884737 -3.972685,8.857422 -8.857422,8.857422 H 26.574219 c -4.884735,0 -8.857422,-3.972685 -8.857422,-8.857422 V 26.574219 c 0,-4.884735 3.972687,-8.857422 8.857422,-8.857422 z m 23.917969,3.311931 c -2.248699,0 -4.071701,1.81941 -4.071701,4.068109 0,2.248699 1.823002,4.071701 4.071701,4.071701 2.248696,0 4.0717,-1.823002 4.0717,-4.071701 0,-2.248699 -1.823004,-4.068109 -4.0717,-4.068109 z m -12.697266,5.693928 c -6.10563,0 -11.072266,4.966636 -11.072266,11.072266 0,6.10563 4.966636,11.072266 11.072266,11.072266 6.10563,-10e-7 11.072266,-4.966636 11.072266,-11.072266 -10e-7,-6.10563 -4.966636,-11.072266 -11.072266,-11.072266 z m 1.3e-4,5.313571 c 3.180887,0 5.760518,2.577936 5.760518,5.758825 0,3.180887 -2.579631,5.760518 -5.760518,5.760518 -3.180889,0 -5.758825,-2.579631 -5.758825,-5.760518 0,-3.180889 2.577936,-5.758825 5.758825,-5.758825 z"
       transform="scale(0.26458333)"
       sodipodi:nodetypes="sssssssssssssssssssssssssssssssss"
       inkscape:label="instagram" />
  </g>
</svg>
