<?xml version="1.0" encoding="UTF-8" standalone="no"?>
<svg
   xmlns:dc="http://purl.org/dc/elements/1.1/"
   xmlns:cc="http://creativecommons.org/ns#"
   xmlns:rdf="http://www.w3.org/1999/02/22-rdf-syntax-ns#"
   xmlns:svg="http://www.w3.org/2000/svg"
   xmlns="http://www.w3.org/2000/svg"
   xmlns:sodipodi="http://sodipodi.sourceforge.net/DTD/sodipodi-0.dtd"
   xmlns:inkscape="http://www.inkscape.org/namespaces/inkscape"
   width="20mm"
   height="20mm"
   viewBox="0 0 19.999999 20"
   version="1.1"
   id="svg8"
   inkscape:version="1.0.2-2 (e86c870879, 2021-01-15)"
   sodipodi:docname="slab_digitalWorld_all.svg">
  <defs
     id="defs2" />
  <sodipodi:namedview
     id="base"
     pagecolor="#7e99b9"
     bordercolor="#f72585"
     borderopacity="1"
     inkscape:pageopacity="0.4"
     inkscape:pageshadow="2"
     inkscape:zoom="5.6568543"
     inkscape:cx="28.727283"
     inkscape:cy="49.508671"
     inkscape:document-units="mm"
     inkscape:current-layer="layer4"
     showgrid="true"
     units="mm"
     inkscape:pagecheckerboard="true"
     borderlayer="true"
     inkscape:showpageshadow="true"
     inkscape:window-width="1920"
     inkscape:window-height="1017"
     inkscape:window-x="-8"
     inkscape:window-y="598"
     inkscape:window-maximized="1"
     inkscape:document-rotation="0"
     fit-margin-top="0"
     fit-margin-left="0"
     fit-margin-right="0"
     fit-margin-bottom="0"
     showborder="true"
     inkscape:snap-page="false"
     inkscape:snap-global="false"
     inkscape:snap-bbox="true"
     inkscape:snap-grids="true">
    <inkscape:grid
       type="xygrid"
       id="grid901"
       spacingx="2.2222199"
       spacingy="2.2222221"
       empspacing="3"
       units="mm"
       empcolor="#00d6e5"
       empopacity="0.8"
       color="#00c2d1"
       opacity="0.4"
       originx="0"
       originy="0" />
    <inkscape:grid
       type="xygrid"
       id="grid903"
       spacingx="2.4999999"
       empspacing="2"
       spacingy="2.4999999"
       color="#ffffff"
       opacity="0.10196078"
       empcolor="#ffffff"
       empopacity="0.4"
       units="mm" />
  </sodipodi:namedview>
  <metadata
     id="metadata5">
    <rdf:RDF>
      <cc:Work
         rdf:about="">
        <dc:format>image/svg+xml</dc:format>
        <dc:type
           rdf:resource="http://purl.org/dc/dcmitype/StillImage" />
        <dc:title />
      </cc:Work>
    </rdf:RDF>
  </metadata>
  <g
     inkscape:groupmode="layer"
     id="layer1"
     inkscape:label="slab"
     style="display:inline">
    <path
       id="rect838"
       style="fill:#ffffff;fill-opacity:0.534091;stroke:none;stroke-width:1.5;stroke-linejoin:bevel;paint-order:stroke markers fill;stop-color:#000000"
       d="m 5,0 h 9.999979 c 2.77,0 5,2.23 5,5 v 9.999998 l -5,5 H 5 c -2.77,0 -5,-2.23 -5,-5 V 5 C 0,2.23 2.23,0 5,0 Z"
       sodipodi:nodetypes="sssccssss" />
  </g>
  <g
     inkscape:groupmode="layer"
     id="layer2"
     inkscape:label="gTwitter"
     style="display:none"
     sodipodi:insensitive="true">
    <path
       d="M 17.258551,5.4061454 15.94852,5.2335864 16.290537,3.9573365 14.755893,4.3685763 C 14.26535,4.0779511 13.708356,3.9252175 13.132864,3.9252175 c -1.758816,0 -3.1897928,1.4309767 -3.1897928,3.1897925 V 7.5287974 C 7.7478735,7.4094016 5.7271178,6.3679563 4.3473107,4.6300728 L 3.9905632,4.1807329 3.664385,4.6526672 C 3.5352423,4.8394028 3.4257043,5.0407587 3.3386496,5.2508639 3.0680711,5.9041073 3.0201132,6.609849 3.2000925,7.2919996 3.3058656,7.6932711 3.4907183,8.0715048 3.7383707,8.4020026 L 3.2327661,8.5233924 3.3320041,8.9369578 C 3.5957151,10.035 4.4022453,10.889156 5.4377103,11.231173 l -0.4971868,0.582138 0.3234091,0.276226 c 0.4887698,0.417442 1.0841974,0.676612 1.7173934,0.747496 -1.1337057,0.989611 -2.616738,1.589248 -4.239877,1.589248 l 0.1826375,0.126928 c 1.4326384,0.99537 3.1145889,1.521574 4.8641022,1.521574 2.2797053,0 4.4228473,-0.887715 6.0348003,-2.499668 1.611953,-1.611951 2.499668,-3.7552046 2.499668,-6.0347989 V 7.11501 c 0,-0.1500748 -0.01055,-0.3002615 -0.03135,-0.4483432 z m 0,0"
       id="path836"
       style="stroke-width:0.0283537" />
  </g>
  <g
     inkscape:groupmode="layer"
     id="layer3"
     inkscape:label="gSnapchat"
     sodipodi:insensitive="true"
     style="display:none">
    <g
       id="g920"
       transform="matrix(0.18081056,0,0,0.18081056,-41.44104,-34.137568)">
      <g
         id="g863">
        <g
           id="g861">
          <path
             d="m 320.816,261.59487 c -10.10598,-1.66307 -14.66053,-12.01474 -14.84479,-12.45413 -0.0142,-0.0283 -0.0236,-0.0567 -0.0425,-0.085 -0.51498,-1.04886 -0.82681,-11.25407 -1.04887,-11.35328 0.0283,-0.47247 0.0567,-0.9591 0.0898,-1.45991 l 0.0142,-0.21734 c 0.326,-5.11677 0.7276,-11.48085 -0.96382,-15.26055 -1.15753,-2.5891 -2.71194,-4.8144 -4.62541,-6.61921 -1.60165,-1.51188 -3.46316,-2.74029 -5.53254,-3.64742 -3.59545,-1.58747 -6.94994,-1.8237 -8.6319,-1.8237 h -0.005 -0.18427 c -0.46773,0.005 -1.2284,0.0142 -1.29927,0.0142 -1.67724,0 -5.03645,0.23623 -8.64135,1.8237 -2.06466,0.90713 -3.91672,2.13081 -5.51364,3.64269 -1.90403,1.80481 -3.4537,4.02539 -4.60651,6.60504 -1.69142,3.77498 -1.28983,10.13905 -0.96855,15.2511 v 0.01 c -0.24228,0.0621 -0.21902,0.0816 -0.54672,0.11264 -1.31157,0 -2.86986,-0.41554 -4.62946,-1.24015 -0.51943,-0.24023 -1.16101,-0.38427 -1.75957,-0.36361 -1.07586,0.0371 -2.15565,0.30519 -3.1101,0.87006 -1.20769,0.70772 -1.98685,1.70114 -2.2011,2.81142 -0.13634,0.72722 -0.12988,2.17514 1.48039,3.64254 0.88952,0.80512 2.1881,1.55181 3.86977,2.21408 0.44151,0.17532 0.96744,0.33763 1.51934,0.51295 1.92191,0.61033 4.24826,0.61058 4.80104,1.90513 0.27875,0.65672 0.15591,1.52133 -0.35907,2.5702 -0.0142,0.0284 -0.0283,0.0567 -0.0378,0.085 -0.13229,0.30237 -1.33707,3.01904 -3.80805,5.88689 -1.40322,1.62999 -2.94817,2.99541 -4.59234,4.05373 -2.00797,1.29455 -4.17658,2.13553 -6.44912,2.50878 -0.89296,0.14646 -1.53078,0.9402 -1.47881,1.8426 0.0142,0.25986 0.0756,0.51971 0.18426,0.77012 v 0.005 c 0.3638,0.84571 1.20006,1.55913 2.56075,2.1875 1.66307,0.77012 4.14822,1.41739 7.39404,1.92293 0.16537,0.31182 0.33545,1.09139 0.45357,1.62527 0.12284,0.56695 0.2504,1.15281 0.43466,1.77174 0.19844,0.67089 0.7087,1.47408 2.02687,1.47408 0.50081,0 1.07249,-0.11339 1.73866,-0.24096 0.97328,-0.18898 2.30562,-0.44884 3.96397,-0.44884 0.9213,0 1.87568,0.0803 2.83478,0.24096 1.85205,0.3071 3.44898,1.43156 5.29631,2.73556 2.70249,1.90875 5.76405,4.06791 10.44143,4.06791 0.12757,0 0.25513,-0.005 0.3827,-0.0142 0.15118,0.009 0.34489,0.0142 0.54333,0.0142 4.67738,0 7.73894,-2.15916 10.44143,-4.06318 l 0.005,-0.005 c 1.84733,-1.29928 3.44426,-2.42374 5.29631,-2.73084 0.9591,-0.16064 1.91348,-0.24096 2.83478,-0.24096 1.58747,0 2.84423,0.20316 3.96396,0.4205 0.73232,0.14173 1.29928,0.2126 1.73867,0.2126 h 0.0425 0.0425 c 0.96382,0 1.67252,-0.52915 1.94182,-1.45046 0.17954,-0.60947 0.3071,-1.17643 0.43467,-1.75756 0.10866,-0.50081 0.2882,-1.304 0.44884,-1.61582 3.24582,-0.51026 5.73097,-1.15281 7.39404,-1.92293 1.35597,-0.62837 2.19223,-1.34179 2.55603,-2.18278 0.10866,-0.2504 0.17481,-0.51026 0.18898,-0.77956 0.052,-0.89296 -0.58585,-1.69142 -1.47881,-1.83316 z"
             id="path859"
             style="stroke-width:0.147645"
             sodipodi:nodetypes="cccccccccsccscccccccaccccccccccccccccccscsccscscccscscscccccccc" />
          <path
             d="m 248.18882,261.59487 c 10.10598,-1.66307 14.66053,-12.01474 14.84479,-12.45413 0.0142,-0.0283 0.0236,-0.0567 0.0425,-0.085 0.51498,-1.04886 0.82681,-11.25407 1.04887,-11.35328 -0.0283,-0.47247 -0.0567,-0.9591 -0.0898,-1.45991 l -0.0142,-0.21734 c -0.326,-5.11677 -0.7276,-11.48085 0.96382,-15.26055 1.15753,-2.5891 2.71194,-4.8144 4.62541,-6.61921 1.60165,-1.51188 3.46316,-2.74029 5.53254,-3.64742 3.59545,-1.58747 6.94994,-1.8237 8.6319,-1.8237 h 0.005 0.18427 c 0.46773,0.005 1.2284,0.0142 1.29927,0.0142 1.67724,0 5.03645,0.23623 8.64135,1.8237 2.06466,0.90713 3.91672,2.13081 5.51364,3.64269 1.90403,1.80481 3.4537,4.02539 4.60651,6.60504 1.69142,3.77498 1.28983,10.13905 0.96855,15.2511 v 0.01 c 0.24228,0.0621 0.21902,0.0816 0.54672,0.11264 1.31157,0 2.86986,-0.41554 4.62946,-1.24015 0.51943,-0.24023 1.16101,-0.38427 1.75957,-0.36361 1.07586,0.0371 2.15565,0.30519 3.1101,0.87006 1.20769,0.70772 1.98685,1.70114 2.2011,2.81142 0.13634,0.72722 0.12988,2.17514 -1.48039,3.64254 -0.88952,0.80512 -2.1881,1.55181 -3.86977,2.21408 -0.44151,0.17532 -0.96744,0.33763 -1.51934,0.51295 -1.92191,0.61033 -4.24826,0.61058 -4.80104,1.90513 -0.27875,0.65672 -0.15591,1.52133 0.35907,2.5702 0.0142,0.0284 0.0283,0.0567 0.0378,0.085 0.13229,0.30237 1.33707,3.01904 3.80805,5.88689 1.40322,1.62999 2.94817,2.99541 4.59234,4.05373 2.00797,1.29455 4.17658,2.13553 6.44912,2.50878 0.89296,0.14646 1.53078,0.9402 1.47881,1.8426 -0.0142,0.25986 -0.0756,0.51971 -0.18426,0.77012 v 0.005 c -0.3638,0.84571 -1.20006,1.55913 -2.56075,2.1875 -1.66307,0.77012 -4.14822,1.41739 -7.39404,1.92293 -0.16537,0.31182 -0.33545,1.09139 -0.45357,1.62527 -0.12284,0.56695 -0.2504,1.15281 -0.43466,1.77174 -0.19844,0.67089 -0.7087,1.47408 -2.02687,1.47408 -0.50081,0 -1.07249,-0.11339 -1.73866,-0.24096 -0.97328,-0.18898 -2.30562,-0.44884 -3.96397,-0.44884 -0.9213,0 -1.87568,0.0803 -2.83478,0.24096 -1.85205,0.3071 -3.44898,1.43156 -5.29631,2.73556 -2.70249,1.90875 -5.76405,4.06791 -10.44143,4.06791 -0.12757,0 -0.25513,-0.005 -0.3827,-0.0142 -0.15118,0.009 -0.34489,0.0142 -0.54333,0.0142 -4.67738,0 -7.73894,-2.15916 -10.44143,-4.06318 l -0.005,-0.005 c -1.84733,-1.29928 -3.44426,-2.42374 -5.29631,-2.73084 -0.9591,-0.16064 -1.91348,-0.24096 -2.83478,-0.24096 -1.58747,0 -2.84423,0.20316 -3.96396,0.4205 -0.73232,0.14173 -1.29928,0.2126 -1.73867,0.2126 h -0.0425 -0.0425 c -0.96382,0 -1.67252,-0.52915 -1.94182,-1.45046 -0.17954,-0.60947 -0.3071,-1.17643 -0.43467,-1.75756 -0.10866,-0.50081 -0.2882,-1.304 -0.44884,-1.61582 -3.24582,-0.51026 -5.73097,-1.15281 -7.39404,-1.92293 -1.35597,-0.62837 -2.19223,-1.34179 -2.55603,-2.18278 -0.10866,-0.2504 -0.17481,-0.51026 -0.18898,-0.77956 -0.052,-0.89296 0.58585,-1.69142 1.47881,-1.83316 z"
             id="path922"
             style="stroke-width:0.147645"
             sodipodi:nodetypes="cccccccccsccscccccccaccccccccccccccccccscsccscscccscscscccccccc" />
        </g>
      </g>
      <g
         id="g865" />
      <g
         id="g867" />
      <g
         id="g869" />
      <g
         id="g871" />
      <g
         id="g873" />
      <g
         id="g875" />
      <g
         id="g877" />
      <g
         id="g879" />
      <g
         id="g881" />
      <g
         id="g883" />
      <g
         id="g885" />
      <g
         id="g887" />
      <g
         id="g889" />
      <g
         id="g891" />
      <g
         id="g893" />
    </g>
  </g>
  <g
     inkscape:groupmode="layer"
     id="layer4"
     inkscape:label="gFacebook"
     style="display:inline">
    <path
       id="rect985"
       style="fill:#0000ff;fill-opacity:0.534091;stroke-width:1.93179;stroke-linejoin:bevel;paint-order:stroke markers fill;stop-color:#000000"
       d="m 14.124623,2.430249 c -2.384545,0 -4.016418,1.4557498 -4.016418,4.1282258 V 8.8618419 H 7.4115148 v 3.1239551 h 2.6966902 v 8.014201 l 3.225114,-0.0014 v -8.014201 h 2.688703 L 16.426658,8.8611764 H 13.333319 V 6.8672763 c 0,-0.9040008 0.250128,-1.5200496 1.54667,-1.5200496 l 1.653819,-6.655e-4 V 2.5527049 C 16.247922,2.5155631 15.267827,2.430249 14.124623,2.430249 Z"
       sodipodi:nodetypes="ssccccccccccscccs" />
    <g
       id="g929"
       transform="matrix(0.26458333,0,0,0.26458333,1.9656626,1.965398)" />
    <g
       id="g931"
       transform="matrix(0.26458333,0,0,0.26458333,1.9656626,1.965398)" />
    <g
       id="g933"
       transform="matrix(0.26458333,0,0,0.26458333,1.9656626,1.965398)" />
    <g
       id="g935"
       transform="matrix(0.26458333,0,0,0.26458333,1.9656626,1.965398)" />
    <g
       id="g937"
       transform="matrix(0.26458333,0,0,0.26458333,1.9656626,1.965398)" />
    <g
       id="g939"
       transform="matrix(0.26458333,0,0,0.26458333,1.9656626,1.965398)" />
    <g
       id="g941"
       transform="matrix(0.26458333,0,0,0.26458333,1.9656626,1.965398)" />
    <g
       id="g943"
       transform="matrix(0.26458333,0,0,0.26458333,1.9656626,1.965398)" />
    <g
       id="g945"
       transform="matrix(0.26458333,0,0,0.26458333,1.9656626,1.965398)" />
    <g
       id="g947"
       transform="matrix(0.26458333,0,0,0.26458333,1.9656626,1.965398)" />
    <g
       id="g949"
       transform="matrix(0.26458333,0,0,0.26458333,1.9656626,1.965398)" />
    <g
       id="g951"
       transform="matrix(0.26458333,0,0,0.26458333,1.9656626,1.965398)" />
    <g
       id="g953"
       transform="matrix(0.26458333,0,0,0.26458333,1.9656626,1.965398)" />
    <g
       id="g955"
       transform="matrix(0.26458333,0,0,0.26458333,1.9656626,1.965398)" />
    <g
       id="g957"
       transform="matrix(0.26458333,0,0,0.26458333,1.9656626,1.965398)" />
  </g>
  <g
     inkscape:groupmode="layer"
     id="layer5"
     inkscape:label="gInstagram"
     sodipodi:insensitive="true">
    <path
       id="rect1027"
       style="fill:#d40000;fill-opacity:0.534091;stroke-width:5.66929;stroke-linejoin:bevel;paint-order:stroke markers fill;stop-color:#000000"
       d="m 25.196849,10.278713 c -8.225875,0 -14.918136,6.692261 -14.918136,14.918136 v 25.196146 c 0,8.225877 6.692261,14.918135 14.918136,14.918135 h 25.196146 c 8.225877,0 14.918135,-6.692258 14.918135,-14.918135 V 25.196849 c 0,-8.225875 -6.692258,-14.918136 -14.918135,-14.918136 z m 1.37737,7.438084 h 22.441406 c 4.884737,0 8.857422,3.972687 8.857422,8.857422 v 22.441406 c 0,4.884737 -3.972685,8.857422 -8.857422,8.857422 H 26.574219 c -4.884735,0 -8.857422,-3.972685 -8.857422,-8.857422 V 26.574219 c 0,-4.884735 3.972687,-8.857422 8.857422,-8.857422 z m 23.917969,3.311931 c -2.248699,0 -4.071701,1.81941 -4.071701,4.068109 0,2.248699 1.823002,4.071701 4.071701,4.071701 2.248696,0 4.0717,-1.823002 4.0717,-4.071701 0,-2.248699 -1.823004,-4.068109 -4.0717,-4.068109 z m -12.697266,5.693928 c -6.10563,0 -11.072266,4.966636 -11.072266,11.072266 0,6.10563 4.966636,11.072266 11.072266,11.072266 6.10563,-10e-7 11.072266,-4.966636 11.072266,-11.072266 -10e-7,-6.10563 -4.966636,-11.072266 -11.072266,-11.072266 z m 1.3e-4,5.313571 c 3.180887,0 5.760518,2.577936 5.760518,5.758825 0,3.180887 -2.579631,5.760518 -5.760518,5.760518 -3.180889,0 -5.758825,-2.579631 -5.758825,-5.760518 0,-3.180889 2.577936,-5.758825 5.758825,-5.758825 z"
       transform="scale(0.26458333)"
       sodipodi:nodetypes="sssssssssssssssssssssssssssssssss" />
  </g>
</svg>
