<?xml version="1.0" encoding="UTF-8" standalone="no"?>
<svg
   xmlns:dc="http://purl.org/dc/elements/1.1/"
   xmlns:cc="http://creativecommons.org/ns#"
   xmlns:rdf="http://www.w3.org/1999/02/22-rdf-syntax-ns#"
   xmlns:svg="http://www.w3.org/2000/svg"
   xmlns="http://www.w3.org/2000/svg"
   xmlns:sodipodi="http://sodipodi.sourceforge.net/DTD/sodipodi-0.dtd"
   xmlns:inkscape="http://www.inkscape.org/namespaces/inkscape"
   width="46mm"
   height="46mm"
   viewBox="0 0 45.999998 46"
   version="1.1"
   id="svg8"
   inkscape:version="1.0.2-2 (e86c870879, 2021-01-15)"
   sodipodi:docname="Slab_SocialNetwork_overview1.svg"
   inkscape:export-filename="F:\git\slabShed\collections\Slab_socialNetworks\overview1.png"
   inkscape:export-xdpi="198.78262"
   inkscape:export-ydpi="198.78262">
  <defs
     id="defs2" />
  <sodipodi:namedview
     id="base"
     pagecolor="#7e99b9"
     bordercolor="#f72585"
     borderopacity="1"
     inkscape:pageopacity="0"
     inkscape:pageshadow="2"
     inkscape:zoom="2.8284272"
     inkscape:cx="53.74216"
     inkscape:cy="101.6615"
     inkscape:document-units="mm"
     inkscape:current-layer="layer1"
     showgrid="true"
     units="mm"
     inkscape:pagecheckerboard="true"
     borderlayer="true"
     inkscape:showpageshadow="true"
     inkscape:window-width="1920"
     inkscape:window-height="1017"
     inkscape:window-x="-8"
     inkscape:window-y="598"
     inkscape:window-maximized="1"
     inkscape:document-rotation="0"
     fit-margin-top="0"
     fit-margin-left="0"
     fit-margin-right="0"
     fit-margin-bottom="0"
     showborder="true"
     inkscape:snap-page="true"
     inkscape:snap-global="false"
     inkscape:snap-bbox="true"
     inkscape:snap-grids="false">
    <inkscape:grid
       type="xygrid"
       id="grid901"
       spacingx="2.2222199"
       spacingy="2.2222221"
       empspacing="3"
       units="mm"
       empcolor="#00d6e5"
       empopacity="0.8"
       color="#00c2d1"
       opacity="0.4"
       originx="24.11111"
       originy="1.8888905" />
    <inkscape:grid
       type="xygrid"
       id="grid903"
       spacingx="2.4999999"
       empspacing="2"
       spacingy="2.4999999"
       color="#ffffff"
       opacity="0.10196078"
       empcolor="#ffffff"
       empopacity="0.4"
       units="mm"
       originx="24.11111"
       originy="1.8888905" />
  </sodipodi:namedview>
  <metadata
     id="metadata5">
    <rdf:RDF>
      <cc:Work
         rdf:about="">
        <dc:format>image/svg+xml</dc:format>
        <dc:type
           rdf:resource="http://purl.org/dc/dcmitype/StillImage" />
        <dc:title></dc:title>
      </cc:Work>
    </rdf:RDF>
  </metadata>
  <g
     inkscape:groupmode="layer"
     id="layer3"
     inkscape:label="Shed"
     style="display:inline">
    <path
       id="rect89"
       style="display:inline;fill:#4895ef;stroke-width:1.5;stroke-linejoin:bevel;paint-order:stroke markers fill;stop-color:#000000"
       d="m -18.361111,-1.8888904 h 34.5 c 3.1855,0 5.75,2.56450001 5.75,5.75 V 38.36111 l -5.75,5.75 h -34.5 c -3.1855,0 -5.75,-2.5645 -5.75,-5.75 V 3.8611096 c 0,-3.18549999 2.5645,-5.75 5.75,-5.75 z"
       sodipodi:nodetypes="sssccssss"
       transform="translate(24.11111,1.8888904)" />
  </g>
  <g
     inkscape:groupmode="layer"
     id="layer1"
     inkscape:label="slab"
     style="display:inline"
     transform="translate(24.11111,1.8888904)">
    <path
       id="path1038"
       style="display:inline;fill:#e6e6e6;fill-opacity:1;stroke:#7209b7;stroke-width:0.26458333;stroke-linejoin:bevel;paint-order:stroke markers fill;stop-color:#000000;stroke-miterlimit:4;stroke-dasharray:none"
       d="m -17.222199,22.222221 h 9.9999791 c 2.77,0 5,2.23 5,5 v 9.999998 l -5,5 h -9.9999791 c -2.77,0 -5,-2.23 -5,-5 v -9.999998 c 0,-2.77 2.23,-5 5,-5 z"
       sodipodi:nodetypes="sssccssss" />
    <path
       id="rect838"
       style="display:inline;fill:#e6e6e6;fill-opacity:1;stroke:#7209b7;stroke-width:0.26458333;stroke-linejoin:bevel;paint-order:stroke markers fill;stop-color:#000000;stroke-miterlimit:4;stroke-dasharray:none"
       d="m 5,0 h 9.999979 c 2.77,0 5,2.23 5,5 v 9.999998 l -5,5 H 5 c -2.77,0 -5,-2.23 -5,-5 V 5 C 0,2.23 2.23,0 5,0 Z"
       sodipodi:nodetypes="sssccssss"
       inkscape:export-filename="F:\git\slabShed\collections\Slab_ socialNetworks\slab_spcialNetworks_facebook.png"
       inkscape:export-xdpi="335"
       inkscape:export-ydpi="335" />
    <path
       id="path1034"
       style="display:inline;fill:#e6e6e6;fill-opacity:1;stroke:#7209b7;stroke-width:0.26458333;stroke-linejoin:bevel;paint-order:stroke markers fill;stop-color:#000000;stroke-miterlimit:4;stroke-dasharray:none"
       d="m -17.222199,0 h 9.9999791 c 2.77,0 5,2.23 5,5 v 9.999998 l -5,5 h -9.9999791 c -2.77,0 -5,-2.23 -5,-5 V 5 c 0,-2.77 2.23,-5 5,-5 z"
       sodipodi:nodetypes="sssccssss"
       inkscape:export-filename="F:\git\slabShed\collections\Slab_ socialNetworks\slab_spcialNetworks_snapchat.png"
       inkscape:export-xdpi="335"
       inkscape:export-ydpi="335" />
    <path
       id="path1036"
       style="display:inline;fill:#e6e6e6;fill-opacity:1;stroke:#7209b7;stroke-width:0.26458333;stroke-linejoin:bevel;paint-order:stroke markers fill;stop-color:#000000;stroke-miterlimit:4;stroke-dasharray:none"
       d="m 5,22.222221 h 9.999979 c 2.77,0 5,2.23 5,5 v 9.999998 l -5,5 H 5 c -2.77,0 -5,-2.23 -5,-5 v -9.999998 c 0,-2.77 2.23,-5 5,-5 z"
       sodipodi:nodetypes="sssccssss"
       inkscape:export-filename="F:\git\slabShed\collections\Slab_ socialNetworks\slab_spcialNetworks_twitter.png"
       inkscape:export-xdpi="335"
       inkscape:export-ydpi="335" />
  </g>
  <g
     inkscape:groupmode="layer"
     id="layer5"
     inkscape:label="Glyph"
     style="display:inline"
     transform="translate(24.11111,1.8888904)">
    <path
       d="m 17.258541,27.628365 -1.310031,-0.172559 0.342017,-1.27625 -1.534644,0.41124 c -0.490543,-0.290625 -1.047537,-0.443359 -1.623029,-0.443359 -1.758816,0 -3.1897933,1.430977 -3.1897933,3.189793 v 0.413787 C 7.747863,29.631621 5.7271073,28.590176 4.3473002,26.852293 l -0.3567475,-0.44934 -0.3261782,0.471934 c -0.1291427,0.186736 -0.2386807,0.388091 -0.3257354,0.598197 -0.2705785,0.653243 -0.3185364,1.358985 -0.1385571,2.041135 0.1057731,0.401272 0.2906258,0.779506 0.5382782,1.110003 l -0.5056046,0.12139 0.099238,0.413566 c 0.263711,1.098042 1.0702412,1.952198 2.1057062,2.294215 l -0.4971868,0.582138 0.3234091,0.276226 c 0.4887698,0.417442 1.0841974,0.676612 1.7173934,0.747496 -1.1337057,0.989611 -2.616738,1.589248 -4.239877,1.589248 l 0.1826375,0.126928 c 1.4326384,0.99537 3.1145889,1.521574 4.8641022,1.521574 2.2797048,0 4.4228478,-0.887715 6.0348008,-2.499668 1.611952,-1.611951 2.499667,-3.755205 2.499667,-6.034799 V 29.33723 c 0,-0.150075 -0.01055,-0.300262 -0.03135,-0.448343 z m 0,0"
       id="twitter"
       style="display:inline;fill:#1a1a1a;stroke-width:0.13229167;stroke:none;stroke-miterlimit:4;stroke-dasharray:none"
       inkscape:label="twitter" />
    <path
       id="path859"
       style="fill:#1a1a1a;stroke:none;stroke-width:0.500001;stroke-miterlimit:4;stroke-dasharray:none"
       d="M 44.4375 20.71875 C 43.42868 20.71875 41.537993 20.843538 39.429688 21.607422 C 39.427695 21.608138 39.425821 21.608658 39.423828 21.609375 C 39.123053 21.717612 38.817705 21.839004 38.509766 21.974609 C 37.098819 22.594523 35.833488 23.431657 34.742188 24.464844 C 33.441017 25.698212 32.381555 27.215638 31.59375 28.978516 C 30.437868 31.558256 30.712084 35.906926 30.931641 39.400391 L 30.931641 39.40625 C 30.76606 39.448687 30.782531 39.463164 30.558594 39.484375 C 29.662294 39.484375 28.597003 39.20024 27.394531 38.636719 C 27.039558 38.472551 26.600449 38.374555 26.191406 38.388672 C 25.456186 38.414033 24.718658 38.596404 24.066406 38.982422 C 23.241097 39.466063 22.708911 40.145556 22.5625 40.904297 C 22.469335 41.401264 22.473809 42.389789 23.574219 43.392578 C 24.182095 43.94278 25.069532 44.453669 26.21875 44.90625 C 26.52047 45.026061 26.878704 45.136048 27.255859 45.255859 C 28.569253 45.672945 30.159349 45.673927 30.537109 46.558594 C 30.542227 46.57065 30.542154 46.585395 30.546875 46.597656 C 30.470539 47.445077 30.388037 48.120819 30.292969 48.314453 C 30.280118 48.333804 30.273499 48.353771 30.263672 48.373047 C 30.247932 48.41058 30.184865 48.552955 30.074219 48.777344 C 29.980944 48.966503 29.832706 49.239866 29.669922 49.529297 C 29.639604 49.583202 29.628471 49.613151 29.595703 49.669922 C 29.593956 49.672951 29.593551 49.674697 29.591797 49.677734 C 29.474627 49.880533 29.304928 50.131667 29.15625 50.365234 C 29.035373 50.55492 28.937061 50.72477 28.794922 50.929688 C 28.660548 51.123605 28.481683 51.335705 28.328125 51.539062 C 28.120582 51.813603 27.930975 52.083257 27.6875 52.367188 C 27.60817 52.459685 27.518706 52.551796 27.435547 52.644531 C 27.29542 52.800765 27.155677 52.956903 27.011719 53.105469 C 26.870741 53.250871 26.718982 53.393598 26.568359 53.537109 C 26.468296 53.632444 26.369255 53.7306 26.267578 53.822266 C 26.097444 53.97555 25.915992 54.125019 25.734375 54.273438 C 25.638323 54.351906 25.544563 54.43453 25.447266 54.509766 C 25.238598 54.671114 25.017984 54.824517 24.794922 54.976562 C 24.71956 55.027857 24.646309 55.085385 24.570312 55.134766 C 24.425911 55.228712 24.269383 55.311247 24.119141 55.400391 C 23.930894 55.511811 23.744757 55.628473 23.552734 55.728516 C 23.357986 55.830272 23.149118 55.917463 22.945312 56.009766 C 22.786317 56.081391 22.629991 56.160552 22.46875 56.224609 C 22.270482 56.303746 22.059897 56.366476 21.853516 56.435547 C 21.6687 56.497027 21.486197 56.567357 21.298828 56.619141 C 21.060371 56.685301 20.809249 56.731813 20.560547 56.783203 C 20.412848 56.813562 20.268182 56.85638 20.119141 56.880859 C 19.966584 56.90588 19.82534 56.958641 19.699219 57.033203 C 19.698515 57.033616 19.697968 57.034742 19.697266 57.035156 C 19.571642 57.109819 19.461122 57.205898 19.371094 57.318359 C 19.33955 57.357763 19.325238 57.408075 19.298828 57.451172 C 19.173933 57.653933 19.092768 57.885026 19.107422 58.136719 C 19.107456 58.137366 19.107387 58.138025 19.107422 58.138672 C 19.107459 58.139339 19.107383 58.139957 19.107422 58.140625 C 19.107534 58.142647 19.109255 58.144462 19.109375 58.146484 C 19.119929 58.323458 19.161979 58.495139 19.232422 58.660156 C 19.233259 58.662106 19.233529 58.664067 19.234375 58.666016 L 19.234375 58.669922 C 19.482992 59.247861 20.054509 59.734648 20.984375 60.164062 C 22.120883 60.690347 23.818984 61.13304 26.037109 61.478516 C 26.093613 61.585061 26.149853 61.771135 26.203125 61.976562 C 26.203313 61.977285 26.202937 61.977793 26.203125 61.978516 C 26.256799 62.185154 26.306616 62.40896 26.34375 62.580078 C 26.39874 62.830643 26.467326 63.085308 26.53125 63.337891 C 26.568642 63.48564 26.595347 63.627534 26.640625 63.78125 C 26.642615 63.787989 26.642522 63.794031 26.644531 63.800781 C 26.683756 63.933394 26.748945 64.068901 26.832031 64.201172 C 27.036192 64.52619 27.389046 64.806641 28.029297 64.806641 C 28.371533 64.806641 28.761549 64.729772 29.216797 64.642578 C 29.602856 64.567617 30.081926 64.47942 30.628906 64.416016 C 31.028776 64.373534 31.446288 64.339844 31.921875 64.339844 C 32.551472 64.339844 33.203948 64.394149 33.859375 64.503906 C 35.125025 64.713772 36.216089 65.481239 37.478516 66.369141 L 37.482422 66.373047 C 37.944128 66.698339 38.421937 67.034162 38.927734 67.355469 C 39.433532 67.676776 39.968194 67.984237 40.544922 68.25 C 41.698379 68.781931 43.018978 69.150391 44.617188 69.150391 C 44.732203 69.150391 44.838981 69.147093 44.933594 69.142578 C 45.028497 69.147136 45.13438 69.150391 45.25 69.150391 C 45.648877 69.150391 46.032282 69.126732 46.398438 69.083984 C 47.498607 68.955302 48.459126 68.648948 49.324219 68.25 C 49.900947 67.984237 50.435608 67.676776 50.941406 67.355469 C 51.447204 67.034162 51.925013 66.698339 52.386719 66.373047 L 52.390625 66.369141 C 53.653051 65.481239 54.744114 64.713772 56.009766 64.503906 C 56.665194 64.394149 57.317669 64.339844 57.947266 64.339844 C 58.424241 64.339844 58.84134 64.37527 59.242188 64.417969 C 59.788272 64.481363 60.266775 64.567712 60.652344 64.642578 C 61.10759 64.729772 61.4976 64.806641 61.839844 64.806641 C 62.480095 64.806641 62.832949 64.52619 63.037109 64.201172 C 63.120195 64.068901 63.185384 63.933394 63.224609 63.800781 C 63.226619 63.794031 63.226525 63.787989 63.228516 63.78125 C 63.273798 63.627534 63.300499 63.48564 63.337891 63.337891 C 63.401813 63.085308 63.470387 62.830643 63.525391 62.580078 C 63.587155 62.295414 63.683863 61.902979 63.777344 61.644531 C 63.795857 61.593348 63.813933 61.514003 63.832031 61.478516 C 66.050155 61.13304 67.748259 60.690347 68.884766 60.164062 C 69.814632 59.734648 70.386152 59.247861 70.634766 58.669922 L 70.634766 58.666016 C 70.635591 58.6641 70.635901 58.662073 70.636719 58.660156 C 70.707151 58.495139 70.749201 58.323458 70.759766 58.146484 C 70.759926 58.143801 70.761574 58.141358 70.761719 58.138672 C 70.770305 57.98521 70.748332 57.8358 70.703125 57.697266 C 70.657722 57.558784 70.588451 57.430759 70.498047 57.318359 C 70.317202 57.092452 70.055721 56.931 69.75 56.880859 C 69.600958 56.85638 69.456293 56.813562 69.308594 56.783203 C 69.059892 56.731813 68.80877 56.685301 68.570312 56.619141 C 68.376407 56.56555 68.187262 56.493662 67.996094 56.429688 C 67.798669 56.363233 67.596234 56.302243 67.40625 56.226562 C 67.232015 56.15745 67.062234 56.074039 66.890625 55.996094 C 66.697902 55.908115 66.500994 55.824962 66.316406 55.728516 C 66.124384 55.628473 65.938246 55.511811 65.75 55.400391 C 65.599757 55.311247 65.443229 55.228712 65.298828 55.134766 C 65.222832 55.085385 65.14958 55.027857 65.074219 54.976562 C 64.851157 54.824517 64.630543 54.671114 64.421875 54.509766 C 64.324578 54.43453 64.230818 54.351906 64.134766 54.273438 C 63.953149 54.125019 63.771697 53.97555 63.601562 53.822266 C 63.499886 53.7306 63.400845 53.632444 63.300781 53.537109 C 63.150159 53.393598 62.9984 53.250871 62.857422 53.105469 C 62.713464 52.956903 62.57372 52.800765 62.433594 52.644531 C 62.350434 52.551796 62.260971 52.459685 62.181641 52.367188 C 61.972005 52.12272 61.811863 51.892289 61.628906 51.654297 C 61.438017 51.405747 61.225074 51.149171 61.0625 50.914062 C 60.969861 50.780186 60.909679 50.672557 60.826172 50.544922 C 60.628205 50.242075 60.425095 49.933464 60.277344 49.677734 C 60.243232 49.618693 60.230691 49.585254 60.199219 49.529297 C 60.036435 49.239866 59.888197 48.966503 59.794922 48.777344 C 59.684275 48.552955 59.621209 48.41058 59.605469 48.373047 C 59.595755 48.353771 59.58906 48.333804 59.576172 48.314453 C 59.481099 48.120819 59.398602 47.445077 59.322266 46.597656 C 59.326987 46.585395 59.326914 46.57065 59.332031 46.558594 C 59.709789 45.673927 61.297936 45.672945 62.611328 45.255859 C 62.988485 45.136048 63.348671 45.026061 63.650391 44.90625 C 64.799608 44.453669 65.687043 43.94278 66.294922 43.392578 C 67.395347 42.389789 67.399814 41.401264 67.306641 40.904297 C 67.160227 40.145556 66.628044 39.466063 65.802734 38.982422 C 65.150484 38.596404 64.412954 38.414033 63.677734 38.388672 C 63.268691 38.374555 62.829579 38.472551 62.474609 38.636719 C 61.272137 39.20024 60.206846 39.484375 59.310547 39.484375 C 59.086602 39.463164 59.10307 39.448687 58.9375 39.40625 L 58.9375 39.400391 C 59.157056 35.906926 59.431271 31.558256 58.275391 28.978516 C 57.487585 27.215638 56.428126 25.698212 55.126953 24.464844 C 54.035652 23.431657 52.770322 22.594523 51.359375 21.974609 C 51.051436 21.839004 50.746087 21.717612 50.445312 21.609375 C 50.440213 21.607524 50.434785 21.605359 50.429688 21.603516 C 50.425704 21.602087 50.421951 21.601033 50.417969 21.599609 C 48.317444 20.84195 46.437379 20.71875 45.431641 20.71875 L 45.427734 20.71875 L 45.302734 20.71875 C 45.169964 20.720169 45.087315 20.720901 44.933594 20.722656 C 44.780544 20.720908 44.698475 20.720162 44.566406 20.71875 L 44.439453 20.71875 L 44.4375 20.71875 z "
       transform="matrix(0.26458333,0,0,0.26458333,-24.11111,-1.8888904)" />
    <path
       id="facebook"
       style="display:inline;fill:#1a1a1a;fill-opacity:1;stroke-width:0.13229167;stroke-linejoin:bevel;paint-order:stroke markers fill;stop-color:#000000;stroke:none;stroke-miterlimit:4;stroke-dasharray:none"
       d="m 14.124623,2.4316504 c -2.384545,0 -4.016418,1.4557498 -4.016418,4.1282257 V 8.8632432 H 7.4115148 v 3.1239548 h 2.6966902 v 8.014201 l 3.225114,-0.0014 v -8.014201 h 2.688703 L 16.426658,8.8625777 H 13.333319 V 6.8686776 c 0,-0.9040008 0.250128,-1.5200496 1.54667,-1.5200496 l 1.653819,-6.655e-4 V 2.5541063 C 16.247922,2.5169645 15.267827,2.4316504 14.124623,2.4316504 Z"
       sodipodi:nodetypes="ssccccccccccscccs"
       inkscape:label="facebook" />
    <path
       id="instagram"
       style="fill:#1a1a1a;fill-opacity:1;stroke-width:0.13229167;stroke-linejoin:bevel;paint-order:stroke markers fill;stop-color:#000000;stroke:none;stroke-miterlimit:4;stroke-dasharray:none"
       d="m -15.555449,24.94189 c -2.17643,0 -3.947091,1.770661 -3.947091,3.94709 v 6.66648 c 0,2.17643 1.770661,3.94709 3.947091,3.94709 h 6.6664798 c 2.1764299,0 3.9470898,-1.77066 3.9470898,-3.94709 v -6.66648 c 0,-2.176429 -1.7706599,-3.94709 -3.9470898,-3.94709 z m 0.364429,1.967993 h 5.9376216 c 1.29242,0 2.3435263,1.051107 2.3435263,2.343526 v 5.937622 c 0,1.29242 -1.0511063,2.343526 -2.3435263,2.343526 H -15.19102 c -1.29242,0 -2.343526,-1.051106 -2.343526,-2.343526 v -5.937622 c 0,-1.292419 1.051106,-2.343526 2.343526,-2.343526 z m 6.3282956,0.876282 c -0.5949683,0 -1.0773042,0.481385 -1.0773042,1.076354 0,0.594968 0.4823359,1.077304 1.0773042,1.077304 0.5949675,0 1.0773039,-0.482336 1.0773039,-1.077304 0,-0.594969 -0.4823364,-1.076354 -1.0773039,-1.076354 z m -3.3594846,1.506518 c -1.615448,0 -2.929537,1.314089 -2.929537,2.929537 0,1.615448 1.314089,2.929537 2.929537,2.929537 1.615448,0 2.9295367,-1.314089 2.9295367,-2.929537 -3e-7,-1.615448 -1.3140887,-2.929537 -2.9295367,-2.929537 z m 3.4e-5,1.405883 c 0.84161,0 1.524137,0.682078 1.524137,1.523689 0,0.841609 -0.682527,1.524137 -1.524137,1.524137 -0.84161,0 -1.523689,-0.682528 -1.523689,-1.524137 0,-0.841611 0.682079,-1.523689 1.523689,-1.523689 z"
       sodipodi:nodetypes="sssssssssssssssssssssssssssssssss"
       inkscape:label="instagram" />
  </g>
</svg>
