<?xml version="1.0" encoding="UTF-8" standalone="no"?>
<!-- Created with Inkscape (http://www.inkscape.org/) -->
<svg xmlns:dc="http://purl.org/dc/elements/1.1/" xmlns:cc="http://creativecommons.org/ns#" xmlns:rdf="http://www.w3.org/1999/02/22-rdf-syntax-ns#" xmlns:svg="http://www.w3.org/2000/svg" xmlns="http://www.w3.org/2000/svg" xmlns:sodipodi="http://sodipodi.sourceforge.net/DTD/sodipodi-0.dtd" xmlns:inkscape="http://www.inkscape.org/namespaces/inkscape" width="890.86035" height="432.40414" id="svg2" version="1.1" inkscape:version="0.48.2 r9819" sodipodi:docname="Nouveau document 1">
  <defs id="defs4"/>
  <sodipodi:namedview id="base" pagecolor="#ffffff" bordercolor="#666666" borderopacity="1.0" inkscape:pageopacity="0.0" inkscape:pageshadow="2" inkscape:zoom="0.35" inkscape:cx="-49.236507" inkscape:cy="179.79989" inkscape:document-units="px" inkscape:current-layer="layer1" showgrid="false" fit-margin-bottom="5" fit-margin-top="5" fit-margin-left="5" fit-margin-right="5" inkscape:window-width="1366" inkscape:window-height="706" inkscape:window-x="-8" inkscape:window-y="-8" inkscape:window-maximized="1"/>
  <metadata id="metadata7">
    <rdf:RDF>
      <cc:Work rdf:about="">
        <dc:format>image/svg+xml</dc:format>
        <dc:type rdf:resource="http://purl.org/dc/dcmitype/StillImage"/>
        <dc:title/>
      </cc:Work>
    </rdf:RDF>
  </metadata>
  <g inkscape:label="Calque 1" inkscape:groupmode="layer" id="layer1" transform="translate(76.858714,-354.74113)">
    <g transform="matrix(5.9933074,0,0,-5.9933074,-3392.0203,1003.2229)" id="g6837">
      <g id="g5045" transform="translate(585.61819,47.202896)">
        <path inkscape:connector-curvature="0" d="m 0,0 c -0.839,0 -5.368,-0.001 -5.701,-0.002 0.619,1.681 2.148,5.942 2.8,7.663 C -2.337,5.921 -0.018,0.056 0,0 m 1.706,11.674 c -0.354,0.936 -1.025,1.336 -2.25,1.358 -0.112,0.003 -5.792,-0.005 -5.792,-0.005 L -14.74,-9.867 c 0,0 4.086,0.002 4.089,0.002 0.354,-0.025 0.683,0.028 0.975,0.162 0.798,0.364 1.19,1.289 1.303,1.602 -0.002,-0.004 1.142,3.188 1.22,3.396 0.585,0.001 8.005,0.005 8.457,0.005 0.176,-0.541 1.72,-5.155 1.72,-5.155 l 5.532,0 -3.508,11.14 -3.342,10.389" style="fill:#000000;fill-opacity:1;fill-rule:nonzero;stroke:none" id="path5047"/>
      </g>
      <g id="g5049" transform="translate(627.3242,42.206894)">
        <path inkscape:connector-curvature="0" d="m 0,0 c -3.338,0 -5.953,2.889 -5.953,6.577 0,3.656 2.559,6.413 5.952,6.413 3.363,0 5.805,-2.697 5.805,-6.413 C 5.804,2.827 3.309,0 0,0 m -0.165,18.207 -0.002,0 c -6.548,-0.01 -11.3,-4.928 -11.3,-11.691 0,-6.625 4.858,-11.623 11.302,-11.623 6.446,0 11.496,5.105 11.496,11.623 0,6.556 -5.05,11.691 -11.496,11.691" style="fill:#000000;fill-opacity:1;fill-rule:nonzero;stroke:none" id="path5051"/>
      </g>
      <g id="g5053" transform="translate(653.4722,50.776901)">
        <path inkscape:connector-curvature="0" d="m 0,0 -0.214,0.061 c 0.007,-0.001 -2.13,0.65 -2.135,0.652 L -2.668,0.83 c -1.744,0.631 -2.984,1.159 -2.984,2.175 0,0.024 0.002,0.05 0.002,0.075 0.17,1.685 3.301,1.705 3.333,1.705 1.723,0 3.05,-0.264 4.731,-0.94 L 2.451,3.83 2.522,3.81 C 2.91,3.729 3.246,3.72 3.524,3.782 l 0.465,0.175 c 0.666,0.37 1.332,2.315 1.588,3.134 L 5.659,7.355 5.453,7.545 C 5.372,7.619 4.879,8.024 3.103,8.687 1.293,9.364 -1.273,9.472 -1.273,9.472 l -1.265,0.005 c -6.604,0 -9.126,-4.077 -9.206,-6.818 -0.057,-2.729 1.496,-4.135 3.845,-5.406 0.983,-0.549 2.771,-1.046 4.076,-1.41 -0.006,0.002 1.346,-0.396 1.346,-0.396 2.462,-0.772 3.399,-1.631 3.226,-2.963 -0.078,-0.442 -0.909,-1.171 -2.8,-1.171 -1.434,0 -2.734,0.221 -4.087,0.694 -0.652,0.257 -1.323,0.591 -2.035,1.011 l -0.035,0.021 -0.069,0.031 c -0.394,0.146 -0.746,0.21 -1.048,0.187 l -0.52,-0.115 c -0.754,-0.282 -1.814,-2.21 -2.234,-3.026 l -0.165,-0.32 0.286,-0.226 c 0.048,-0.039 1.224,-0.97 2.221,-1.554 1.172,-0.65 2.495,-1.119 4.05,-1.436 0.627,-0.115 1.624,-0.26 3.186,-0.26 5.116,0 8.838,2.595 9.264,6.457 C 6.951,-3.717 4.801,-1.431 0,0" style="fill:#000000;fill-opacity:1;fill-rule:nonzero;stroke:none" id="path5055"/>
      </g>
      <g id="g5057" transform="translate(664.41721,60.203903)">
        <path inkscape:connector-curvature="0" d="m 0,0 c -0.216,0.002 -1.328,-0.021 -1.972,-0.615 -0.295,-0.273 -0.45,-0.634 -0.45,-1.045 l -0.004,-3.62 c 0,0 6.176,0.002 6.984,0.002 0,-0.851 0.003,-17.598 0.003,-17.598 l 5.719,0.005 0,17.595 c 0.761,10e-4 4.496,0.002 4.496,0.002 0.214,-0.001 1.327,0.022 1.969,0.617 0.296,0.273 0.451,0.633 0.451,1.044 l 0,3.611 L 0,0" style="fill:#000000;fill-opacity:1;fill-rule:nonzero;stroke:none" id="path5059"/>
      </g>
      <g id="g5061" transform="translate(566.27319,42.510895)">
        <path inkscape:connector-curvature="0" d="m 0,0 -6.423,0 c 0,0.845 -0.017,15.603 -0.017,15.603 0,0.649 -0.197,1.161 -0.585,1.523 -0.625,0.582 -1.548,0.576 -1.896,0.573 l -3.374,0.005 0.009,-22.876 14.319,0 0.01,3.635 C 2.043,-1.074 1.844,0 0,0" style="fill:#000000;fill-opacity:1;fill-rule:nonzero;stroke:none" id="path5063"/>
      </g>
      <g id="g5065" transform="translate(607.2122,55.340897)">
        <path inkscape:connector-curvature="0" d="m 0,0 c 1.389,0.091 2.555,-0.005 3.659,-0.303 0.589,-0.198 1.124,-0.236 1.577,-0.11 0.001,0.001 0.459,0.203 0.459,0.203 0.637,0.397 1.096,2.405 1.312,3.565 L 7.058,3.629 6.826,3.795 C 6.767,3.838 6.586,3.967 4.513,4.524 2.622,5.032 0.943,5.096 0.111,5.091 L 0.023,5.09 c -4.743,0 -11.876,-3.129 -12.082,-11.749 l 0,-0.046 c 0.206,-8.619 7.339,-11.747 12.085,-11.747 -10e-4,0 0.087,-10e-4 0.087,-10e-4 0.829,-0.007 2.506,0.057 4.4,0.566 2.073,0.558 2.254,0.687 2.314,0.729 l 0.231,0.166 -0.051,0.274 c -0.216,1.162 -0.675,3.168 -1.312,3.567 l -0.002,0 0.002,0 -0.002,0 -0.456,0.202 c -0.454,0.125 -0.989,0.087 -1.59,-0.113 -1.093,-0.296 -2.26,-0.392 -3.663,-0.3 -3.588,0.351 -5.748,2.793 -5.908,6.699 0.16,3.869 2.32,6.311 5.924,6.663" style="fill:#000000;fill-opacity:1;fill-rule:nonzero;stroke:none" id="path5067"/>
      </g>
      <g id="g5069" transform="translate(698.56619,37.346893)">
        <path inkscape:connector-curvature="0" d="M 0,0 C 0.886,0.018 2.386,0.541 2.386,2.299 L 2.37,5.171 -7.712,5.166 c 0,0 0.013,3.294 0.016,3.837 l 8.325,0 -0.015,5.292 c 0,0 -7.475,-0.009 -8.297,-0.01 -0.003,0.627 10e-4,2.659 -0.001,3.291 0.825,0 7.639,0.007 7.639,0.007 0.214,-10e-4 1.352,-0.003 1.97,0.617 0.433,0.432 0.452,1.219 0.452,1.629 l 0,3.019 -15.864,0.002 0.008,-22.868 L 0,0" style="fill:#000000;fill-opacity:1;fill-rule:nonzero;stroke:none" id="path5071"/>
      </g>
      <g id="g6743">
        <g transform="translate(649.8112,80.106903)" id="g5073">
          <path id="path5075" style="fill:#ca0039;fill-opacity:1;fill-rule:nonzero;stroke:none" d="m 0,0 c 0,0 0.017,1.302 -1.342,2.159 -2.192,1.381 -1.06,2.266 -1.132,2.249 0,0 -2.232,1.851 -6.058,0.465 -3.826,-1.384 -4.046,-1.239 -4.811,-0.692 -0.765,0.547 -2.368,0.255 -2.112,-0.656 0.254,-0.912 0.873,-4.921 5.793,-2.406 4.919,2.515 1.13,-4.302 10.64,-5.358 9.511,-1.059 15.269,-0.584 8.964,1.64 -6.304,2.224 -8.048,2.453 -8.048,2.453 L 0,0" inkscape:connector-curvature="0"/>
        </g>
        <g transform="translate(646.5032,88.076904)" id="g5077">
          <path id="path5079" style="fill:#ffffff;fill-opacity:1;fill-rule:nonzero;stroke:none" d="m 0,0 c 0,0 0.02,0.323 -0.63,0.741 -1.104,0.714 -1.686,-0.026 -1.686,-0.026 0,0 -0.523,-0.457 -0.144,-1.16 0,0 2.09,0.26 2.46,0.445" inkscape:connector-curvature="0"/>
        </g>
        <g transform="translate(648.5442,89.134903)" id="g5081">
          <path id="path5083" style="fill:#ffffff;fill-opacity:1;fill-rule:nonzero;stroke:none" d="M 0,0 C 0,0 -0.254,-0.444 -0.027,-0.601 0.086,-0.679 1.237,-0.355 1.328,-0.306 1.418,-0.259 0.827,1.331 0,0" inkscape:connector-curvature="0"/>
        </g>
        <g transform="translate(649.21919,83.6409)" id="g5085">
          <path id="path5087" style="fill:#005d34;fill-opacity:1;fill-rule:nonzero;stroke:none" d="m 0,0 c 0.456,0.166 0.85,-0.72 1.328,-0.54 0.504,0.191 0.134,1.079 0.68,1.285 0.505,0.189 0.838,-0.712 1.323,-0.532 0.514,0.19 0.187,1.106 0.674,1.281 0.508,0.184 0.803,-0.72 1.329,-0.529 0.525,0.192 0.183,1.097 0.667,1.28 0.49,0.184 0.85,-0.711 1.332,-0.535 0.461,0.17 0.2,1.116 0.674,1.288 0.499,0.181 0.821,-0.713 1.353,-0.521 0.432,0.157 0.194,1.107 0.643,1.276 0.456,0.172 0.873,-0.711 1.343,-0.534 0.443,0.166 0.18,1.108 0.653,1.283 0.495,0.185 0.879,-0.7 1.346,-0.532 0.461,0.167 0.114,0.934 0.718,1.229 0,0 0.839,0.282 0.789,0.901 -0.01,0.102 -0.185,1.429 -1.566,1.707 C 11.961,8.074 1.47,5.155 1.34,5.326 0.371,7.243 -0.866,6.709 -1.055,6.669 -1.248,6.623 -2.415,6.113 -3.716,6.616 -6.262,7.777 -8.296,4.828 -9.686,5.217 -10.975,5.578 -11.955,5.374 -12.493,5.188 -12.989,5.017 -13.785,4.371 -15.48,4.954 -28.574,9.456 -38.812,5.521 -38.812,5.521 -44.583,3.584 -45.323,5.52 -45.323,5.52 c 0,0 -1.895,2.598 11.475,5.69 19.219,4.447 19.795,11.799 19.573,12.26 -0.32,0.675 -0.438,-0.118 -1.072,-0.85 -0.528,-0.608 -1.145,-0.306 -1.145,-0.306 -0.605,0.292 -0.99,-0.406 -0.99,-0.406 0,0 -0.781,-1.211 -1.47,-0.523 -0.659,0.662 -1.541,-0.837 -1.867,-0.895 -0.391,-0.069 -0.581,0.124 -1.112,0.363 -0.789,0.356 -1.635,-1.097 -2.069,-1.195 -0.667,-0.153 -1.133,0.788 -1.699,0.394 -1.709,-1.187 -1.98,-1.359 -2.438,-0.892 -0.341,0.348 -0.39,0.726 -1.529,-0.372 -0.974,-0.938 -1.436,-1.108 -1.829,-0.516 -0.402,0.6 -0.296,1.417 -1.963,-0.193 -0.797,-0.768 -1.205,-0.783 -1.662,-0.436 -0.342,0.258 -0.338,1.496 -1.54,0.375 -1.082,-1.01 -1.872,-1.454 -2.176,-0.555 -0.34,1.005 -1.616,-0.183 -1.915,-0.465 -0.303,-0.283 -0.961,-1.024 -1.422,-0.255 -0.463,0.763 -1.564,-0.385 -2.217,-1.114 -0.509,-0.564 -0.92,-0.13 -1.448,0.231 -0.61,0.419 -2.422,-2.131 -2.588,-2.283 -0.165,-0.148 -0.292,-0.005 -0.708,0.35 -0.641,0.546 -2.365,-2.478 -2.641,-2.677 0,0 -0.122,-0.262 -0.591,0.188 -0.665,0.638 -4.22,-4.059 -5.559,-9.385 -1.713,-6.823 1.017,-12.049 1.017,-12.049 0,0 0.819,-0.025 1.171,0.536 l 0.532,1.205 c 0.43,1.001 1.133,0.684 1.133,0.684 l -1.672,-5.01 c -0.26,-0.662 -0.102,-1.595 0.479,-2.481 0.551,-0.887 0.933,-1.486 1.376,-1.902 1.361,-1.289 1.222,0.234 1.258,0.425 0.157,0.818 1.056,0.194 1.758,-0.202 1.279,-0.721 1.138,0.874 1.417,1.397 0.193,0.368 0.826,0.387 1.508,-0.189 0.531,-0.446 1.061,1.066 1.061,1.066 0.659,3.224 -0.895,3.603 -1.739,3.644 l -1.705,0.081 c 0,0 0.115,0.489 0.287,0.953 l 0.08,0.319 c 1.858,4.665 -1.25,5.568 -2.181,5.489 -1.023,-0.089 -0.951,0.569 -0.951,0.569 0,0 5.616,1.109 4.57,-4.883 0,0 -0.208,-1.042 -0.333,-1.588 l 1.543,-0.18 c 1.332,-0.166 1.567,-1.749 1.567,-1.749 0,0 4.883,-1.296 7.653,-0.777 0,0 1.244,0.296 1.584,1.069 0,0 1.795,4.256 7.035,4.435 0,0 0.187,-0.554 -0.653,-0.835 -1.008,-0.34 -4.345,-0.611 -5.041,-4.476 l -0.003,-0.014 c -0.077,-0.632 0.094,-1.985 1.463,-2.611 1.163,-0.529 1.575,-2.662 1.814,-3.237 0.682,-1.636 1.697,-0.071 1.697,-0.071 0,0 0.645,1.318 1.194,0.589 0.936,-1.24 1.369,-0.617 1.581,0.169 0.23,0.85 0.569,1.221 1.545,0.188 0.417,-0.447 1.236,-0.102 1.317,0.668 0.171,1.684 1.306,0.346 1.47,0.278 0.193,-0.077 1.38,0.197 0.719,2.097 0,0 -0.901,1.813 -4.945,2.598 -0.95,0.185 -0.8,0.877 -0.8,0.877 l 0.896,-0.128 c 0.263,-0.047 2.616,-0.306 2.87,-0.348 9.865,-0.98 17.35,2.387 17.576,2.627 l 0.001,0 c 7.667,-1.475 18.088,-0.97 20.045,-0.263 1.961,0.703 2.11,1.852 1.88,2.159 -0.288,0.383 -0.758,0.536 -1.082,0.685 -0.321,0.148 -0.272,0.462 -0.539,0.548 -0.268,0.086 -0.745,-0.467 -1.114,-0.348 -0.367,0.118 -0.338,0.814 -0.65,0.915 -0.313,0.101 -0.865,-0.423 -1.152,-0.331 -0.288,0.093 -0.344,0.818 -0.621,0.907 C 9.714,-4.353 9.128,-4.877 8.841,-4.784 8.554,-4.691 8.537,-3.98 8.221,-3.878 7.902,-3.776 7.349,-4.305 7.068,-4.213 6.784,-4.123 6.759,-3.409 6.45,-3.309 6.143,-3.21 5.581,-3.731 5.294,-3.639 c -0.287,0.093 -0.37,0.821 -0.637,0.907 -0.266,0.086 -0.801,-0.346 -1.23,-0.32 -2.995,0.283 -4.139,2.175 -4.341,1.62 -0.201,-0.552 0.621,-1.888 1.66,-2.341 0.821,-0.358 9.74,-2.841 9.972,-2.954 0.231,-0.113 0.788,-0.368 0.594,-0.693 C 10.999,-7.835 10.127,-7.424 9.91,-7.241 9.682,-7.05 9.732,-6.982 9.522,-6.93 9.046,-6.811 8.781,-7.691 8.278,-7.573 7.816,-7.465 7.846,-6.536 7.382,-6.428 6.867,-6.307 6.629,-7.187 6.139,-7.071 5.734,-6.977 5.679,-6.026 5.244,-5.924 4.738,-5.806 4.511,-6.688 3.99,-6.566 3.541,-6.461 3.565,-5.532 3.097,-5.423 2.627,-5.312 2.298,-6.17 1.854,-6.066 c -0.445,0.104 -0.506,1.05 -0.906,1.143 -0.4,0.095 -0.721,-0.391 -1.267,-0.459 0,0 -1.557,-0.426 -4.021,2.163 -2.473,2.589 -3.487,3.09 -4.892,2.039 -2.3,-1.721 -3.721,-0.58 -4.142,-0.073 -0.493,0.59 0.027,1.127 0.027,1.127 0,0 0.732,-1.13 1.647,-1.157 1.477,-0.044 2.595,1.992 5.13,2.024 3.208,0.117 4.047,-1.03 4.923,-1.118 0.816,-0.082 1.085,0.05 1.648,0.377 L 0,0" inkscape:connector-curvature="0"/>
        </g>
        <g transform="translate(646.5282,88.089905)" id="g5089">
          <path id="path5091" style="fill:#ffffff;fill-opacity:1;fill-rule:nonzero;stroke:none" d="m 0,0 c 0,0 0.019,0.323 -0.63,0.742 -1.105,0.715 -1.687,-0.027 -1.687,-0.027 0,0 -0.522,-0.456 -0.143,-1.16 0,0 2.09,0.261 2.46,0.445" inkscape:connector-curvature="0"/>
        </g>
        <g transform="translate(648.5692,89.147903)" id="g5093">
          <path id="path5095" style="fill:#ffffff;fill-opacity:1;fill-rule:nonzero;stroke:none" d="M 0,0 C 0,0 -0.254,-0.444 -0.026,-0.601 0.085,-0.678 1.237,-0.355 1.328,-0.306 1.418,-0.259 0.828,1.33 0,0" inkscape:connector-curvature="0"/>
        </g>
        <g transform="translate(625.7813,83.194901)" id="g5097">
          <path id="path5099" style="fill:#ffffff;fill-opacity:1;fill-rule:nonzero;stroke:none" d="M 0,0 C 0,0 1.556,0.844 1.887,0.596 2.219,0.349 1.907,-1.105 1.67,-0.897 L 0,0" inkscape:connector-curvature="0"/>
        </g>
        <g transform="translate(626.37219,85.8909)" id="g5101">
          <path id="path5103" style="fill:#ffffff;fill-opacity:1;fill-rule:nonzero;stroke:none" d="M 0,0 C 0,0 1.553,0.844 1.886,0.595 2.217,0.349 1.902,-1.106 1.67,-0.893 L 0,0" inkscape:connector-curvature="0"/>
        </g>
        <g transform="translate(629.6132,85.305893)" id="g5105">
          <path id="path5107" style="fill:#ffffff;fill-opacity:1;fill-rule:nonzero;stroke:none" d="M 0,0 C 0,0 1.554,0.846 1.885,0.598 2.216,0.349 1.902,-1.106 1.669,-0.894 L 0,0" inkscape:connector-curvature="0"/>
        </g>
        <g transform="translate(627.0043,88.651901)" id="g5109">
          <path id="path5111" style="fill:#ffffff;fill-opacity:1;fill-rule:nonzero;stroke:none" d="M 0,0 C 0,0 1.556,0.846 1.888,0.598 2.217,0.353 1.903,-1.099 1.672,-0.893 L 0,0" inkscape:connector-curvature="0"/>
        </g>
        <g transform="translate(623.0472,86.399902)" id="g5113">
          <path id="path5115" style="fill:#ffffff;fill-opacity:1;fill-rule:nonzero;stroke:none" d="M 0,0 C 0,0 1.553,0.841 1.883,0.595 2.213,0.347 1.902,-1.106 1.667,-0.897 L 0,0" inkscape:connector-curvature="0"/>
        </g>
        <g transform="translate(622.50819,83.6129)" id="g5117">
          <path id="path5119" style="fill:#ffffff;fill-opacity:1;fill-rule:nonzero;stroke:none" d="M 0,0 C 0,0 1.556,0.844 1.886,0.597 2.218,0.349 1.907,-1.102 1.673,-0.896 L 0,0" inkscape:connector-curvature="0"/>
        </g>
        <g transform="translate(619.0352,83.610901)" id="g5121">
          <path id="path5123" style="fill:#ffffff;fill-opacity:1;fill-rule:nonzero;stroke:none" d="M 0,0 C 0,0 1.555,0.846 1.884,0.599 2.216,0.351 1.902,-1.103 1.667,-0.892 L 0,0" inkscape:connector-curvature="0"/>
        </g>
        <g transform="translate(619.5802,86.558899)" id="g5125">
          <path id="path5127" style="fill:#ffffff;fill-opacity:1;fill-rule:nonzero;stroke:none" d="M 0,0 C 0,0 1.557,0.849 1.889,0.6 2.216,0.353 1.904,-1.099 1.672,-0.891 L 0,0" inkscape:connector-curvature="0"/>
        </g>
        <g transform="translate(620.2072,89.498901)" id="g5129">
          <path id="path5131" style="fill:#ffffff;fill-opacity:1;fill-rule:nonzero;stroke:none" d="M 0,0 C 0,0 1.556,0.848 1.888,0.596 2.218,0.349 1.904,-1.105 1.672,-0.894 L 0,0" inkscape:connector-curvature="0"/>
        </g>
        <g transform="translate(616.1682,86.410904)" id="g5133">
          <path id="path5135" style="fill:#ffffff;fill-opacity:1;fill-rule:nonzero;stroke:none" d="M 0,0 C 0,0 1.556,0.848 1.886,0.598 2.214,0.351 1.904,-1.101 1.669,-0.891 L 0,0" inkscape:connector-curvature="0"/>
        </g>
        <g transform="translate(616.71831,89.342895)" id="g5137">
          <path id="path5139" style="fill:#ffffff;fill-opacity:1;fill-rule:nonzero;stroke:none" d="M 0,0 C 0,0 1.553,0.847 1.882,0.599 2.217,0.349 1.904,-1.102 1.667,-0.892 L 0,0" inkscape:connector-curvature="0"/>
        </g>
        <g transform="translate(613.1553,88.864899)" id="g5141">
          <path id="path5143" style="fill:#ffffff;fill-opacity:1;fill-rule:nonzero;stroke:none" d="M 0,0 C 0,0 1.555,0.846 1.886,0.601 2.214,0.352 1.903,-1.105 1.67,-0.894 L 0,0" inkscape:connector-curvature="0"/>
        </g>
        <g transform="translate(612.5742,85.980896)" id="g5145">
          <path id="path5147" style="fill:#ffffff;fill-opacity:1;fill-rule:nonzero;stroke:none" d="M 0,0 C 0,0 1.554,0.846 1.886,0.602 2.219,0.351 1.903,-1.103 1.67,-0.891 L 0,0" inkscape:connector-curvature="0"/>
        </g>
        <g transform="translate(612.11929,83.036896)" id="g5149">
          <path id="path5151" style="fill:#ffffff;fill-opacity:1;fill-rule:nonzero;stroke:none" d="M 0,0 C 0,0 1.556,0.845 1.885,0.599 2.218,0.351 1.906,-1.106 1.67,-0.892 L 0,0" inkscape:connector-curvature="0"/>
        </g>
        <g transform="translate(615.7122,83.665894)" id="g5153">
          <path id="path5155" style="fill:#ffffff;fill-opacity:1;fill-rule:nonzero;stroke:none" d="M 0,0 C 0,0 1.552,0.846 1.885,0.598 2.217,0.351 1.904,-1.103 1.671,-0.894 L 0,0" inkscape:connector-curvature="0"/>
        </g>
        <g transform="translate(608.4662,81.860901)" id="g5157">
          <path id="path5159" style="fill:#ffffff;fill-opacity:1;fill-rule:nonzero;stroke:none" d="M 0,0 C 0,0 1.553,0.845 1.885,0.597 2.216,0.349 1.9,-1.105 1.67,-0.894 L 0,0" inkscape:connector-curvature="0"/>
        </g>
        <g transform="translate(609.02921,84.849899)" id="g5161">
          <path id="path5163" style="fill:#ffffff;fill-opacity:1;fill-rule:nonzero;stroke:none" d="M 0,0 C 0,0 1.555,0.844 1.886,0.599 2.214,0.352 1.903,-1.101 1.669,-0.895 L 0,0" inkscape:connector-curvature="0"/>
        </g>
        <g transform="translate(609.6122,87.915894)" id="g5165">
          <path id="path5167" style="fill:#ffffff;fill-opacity:1;fill-rule:nonzero;stroke:none" d="M 0,0 C 0,0 1.551,0.843 1.884,0.596 2.214,0.348 1.901,-1.106 1.666,-0.897 L 0,0" inkscape:connector-curvature="0"/>
        </g>
        <g transform="translate(606.1252,87.089905)" id="g5169">
          <path id="path5171" style="fill:#ffffff;fill-opacity:1;fill-rule:nonzero;stroke:none" d="M 0,0 C 0,0 1.551,0.839 1.883,0.596 2.213,0.348 1.9,-1.106 1.669,-0.896 L 0,0" inkscape:connector-curvature="0"/>
        </g>
        <g transform="translate(605.5192,84.130905)" id="g5173">
          <path id="path5175" style="fill:#ffffff;fill-opacity:1;fill-rule:nonzero;stroke:none" d="M 0,0 C 0,0 1.556,0.846 1.885,0.597 2.216,0.352 1.901,-1.103 1.668,-0.894 L 0,0" inkscape:connector-curvature="0"/>
        </g>
        <g transform="translate(604.7972,81.339905)" id="g5177">
          <path id="path5179" style="fill:#ffffff;fill-opacity:1;fill-rule:nonzero;stroke:none" d="M 0,0 C 0,0 1.555,0.841 1.886,0.598 2.219,0.35 1.903,-1.107 1.669,-0.895 L 0,0" inkscape:connector-curvature="0"/>
        </g>
        <g transform="translate(601.8992,83.799896)" id="g5181">
          <path id="path5183" style="fill:#ffffff;fill-opacity:1;fill-rule:nonzero;stroke:none" d="M 0,0 C 0,0 1.553,0.845 1.883,0.596 2.213,0.351 1.902,-1.106 1.665,-0.895 L 0,0" inkscape:connector-curvature="0"/>
        </g>
        <g transform="translate(601.0992,80.996903)" id="g5185">
          <path id="path5187" style="fill:#ffffff;fill-opacity:1;fill-rule:nonzero;stroke:none" d="M 0,0 C 0,0 1.55,0.847 1.882,0.6 2.212,0.352 1.903,-1.101 1.666,-0.891 L 0,0" inkscape:connector-curvature="0"/>
        </g>
        <g transform="translate(598.1252,82.310898)" id="g5189">
          <path id="path5191" style="fill:#ffffff;fill-opacity:1;fill-rule:nonzero;stroke:none" d="M 0,0 C 0,0 1.556,0.847 1.887,0.599 2.216,0.352 1.902,-1.103 1.67,-0.896 L 0,0" inkscape:connector-curvature="0"/>
        </g>
        <g transform="translate(602.4502,86.452896)" id="g5193">
          <path id="path5195" style="fill:#ffffff;fill-opacity:1;fill-rule:nonzero;stroke:none" d="M 0,0 C 0,0 1.552,0.844 1.886,0.6 2.215,0.349 1.901,-1.105 1.668,-0.893 L 0,0" inkscape:connector-curvature="0"/>
        </g>
        <g transform="translate(598.87219,85.360901)" id="g5197">
          <path id="path5199" style="fill:#ffffff;fill-opacity:1;fill-rule:nonzero;stroke:none" d="M 0,0 C 0,0 1.555,0.844 1.888,0.599 2.219,0.352 1.904,-1.102 1.671,-0.895 L 0,0" inkscape:connector-curvature="0"/>
        </g>
        <g transform="translate(595.73219,84.2659)" id="g5201">
          <path id="path5203" style="fill:#ffffff;fill-opacity:1;fill-rule:nonzero;stroke:none" d="M 0,0 C 0,0 1.557,0.844 1.884,0.596 2.216,0.35 1.902,-1.102 1.668,-0.895 L 0,0" inkscape:connector-curvature="0"/>
        </g>
        <g transform="translate(600.8252,88.6539)" id="g5205">
          <path id="path5207" style="fill:#ffffff;fill-opacity:1;fill-rule:nonzero;stroke:none" d="M 0,0 C 0,0 1.554,0.847 1.884,0.598 2.213,0.353 1.902,-1.103 1.666,-0.893 L 0,0" inkscape:connector-curvature="0"/>
        </g>
        <g transform="translate(597.64529,87.843903)" id="g5209">
          <path id="path5211" style="fill:#ffffff;fill-opacity:1;fill-rule:nonzero;stroke:none" d="M 0,0 C 0,0 1.554,0.846 1.881,0.599 2.213,0.349 1.901,-1.102 1.667,-0.893 L 0,0" inkscape:connector-curvature="0"/>
        </g>
        <g transform="translate(594.4182,86.651901)" id="g5213">
          <path id="path5215" style="fill:#ffffff;fill-opacity:1;fill-rule:nonzero;stroke:none" d="M 0,0 C 0,0 1.557,0.844 1.887,0.596 2.219,0.351 1.905,-1.105 1.673,-0.896 L 0,0" inkscape:connector-curvature="0"/>
        </g>
        <g transform="translate(601.13319,91.530899)" id="g5217">
          <path id="path5219" style="fill:#ffffff;fill-opacity:1;fill-rule:nonzero;stroke:none" d="M 0,0 C 0,0 1.557,0.846 1.885,0.599 2.217,0.351 1.902,-1.106 1.672,-0.895 L 0,0" inkscape:connector-curvature="0"/>
        </g>
        <g transform="translate(598.0303,90.590897)" id="g5221">
          <path id="path5223" style="fill:#ffffff;fill-opacity:1;fill-rule:nonzero;stroke:none" d="M 0,0 C 0,0 1.554,0.848 1.884,0.599 2.216,0.351 1.902,-1.102 1.67,-0.892 L 0,0" inkscape:connector-curvature="0"/>
        </g>
        <g transform="translate(594.7332,89.525894)" id="g5225">
          <path id="path5227" style="fill:#ffffff;fill-opacity:1;fill-rule:nonzero;stroke:none" d="M 0,0 C 0,0 1.554,0.842 1.885,0.599 2.215,0.352 1.901,-1.106 1.668,-0.895 L 0,0" inkscape:connector-curvature="0"/>
        </g>
        <g transform="translate(602.51421,93.854904)" id="g5229">
          <path id="path5231" style="fill:#ffffff;fill-opacity:1;fill-rule:nonzero;stroke:none" d="M 0,0 C 0,0 1.553,0.844 1.885,0.596 2.214,0.347 1.902,-1.108 1.669,-0.896 L 0,0" inkscape:connector-curvature="0"/>
        </g>
        <g transform="translate(599.1252,93.470901)" id="g5233">
          <path id="path5235" style="fill:#ffffff;fill-opacity:1;fill-rule:nonzero;stroke:none" d="M 0,0 C 0,0 1.556,0.846 1.884,0.598 2.215,0.351 1.904,-1.103 1.671,-0.894 L 0,0" inkscape:connector-curvature="0"/>
        </g>
        <g transform="translate(603.4592,96.698898)" id="g5237">
          <path id="path5239" style="fill:#ffffff;fill-opacity:1;fill-rule:nonzero;stroke:none" d="M 0,0 C 0,0 1.553,0.845 1.883,0.597 2.212,0.351 1.901,-1.106 1.671,-0.892 L 0,0" inkscape:connector-curvature="0"/>
        </g>
        <g transform="translate(606.1722,97.623901)" id="g5241">
          <path id="path5243" style="fill:#ffffff;fill-opacity:1;fill-rule:nonzero;stroke:none" d="M 0,0 C 0,0 1.554,0.842 1.887,0.6 2.216,0.348 1.903,-1.105 1.672,-0.892 L 0,0" inkscape:connector-curvature="0"/>
        </g>
        <g transform="translate(600.5773,95.686905)" id="g5245">
          <path id="path5247" style="fill:#ffffff;fill-opacity:1;fill-rule:nonzero;stroke:none" d="M 0,0 C 0,0 1.555,0.844 1.885,0.598 2.216,0.349 1.901,-1.1 1.671,-0.897 L 0,0" inkscape:connector-curvature="0"/>
        </g>
        <g transform="translate(596.2372,92.463898)" id="g5249">
          <path id="path5251" style="fill:#ffffff;fill-opacity:1;fill-rule:nonzero;stroke:none" d="M 0,0 C 0,0 1.552,0.846 1.883,0.596 2.213,0.349 1.9,-1.106 1.666,-0.895 L 0,0" inkscape:connector-curvature="0"/>
        </g>
        <g transform="translate(623.67821,89.246903)" id="g5253">
          <path id="path5255" style="fill:#ffffff;fill-opacity:1;fill-rule:nonzero;stroke:none" d="M 0,0 C 0,0 1.556,0.846 1.885,0.599 2.216,0.352 1.901,-1.102 1.668,-0.892 L 0,0" inkscape:connector-curvature="0"/>
        </g>
      </g>
    </g>
  </g>
</svg>