<?xml version="1.0" encoding="UTF-8" standalone="no"?>
<svg xmlns="http://www.w3.org/2000/svg" version="1.1" viewBox="0 0 591.49 513.34" height="513.34" width="591.49">
 <defs/>
 <g transform="translate(-69.891,-82.211)">
  <g style="fill:#021e34">
   <g transform="matrix(1.1662,0,0,1.1662,735.52,259.02)">
    <path d="m -517.31,232.41 0,0 0,0 -13.46,0 0,0 0,0 0,-0.6 c 0,-2.37 0,-5.4 0.85,-7.88 0.69,-2.15 1.99,-3.9 4.34,-4.41 0.48,-0.16 0.96,-0.16 1.53,-0.16 0.58,0 1.09,0 1.57,0.16 2.33,0.51 3.63,2.26 4.31,4.41 0.83,2.48 0.86,5.51 0.86,7.88 l 0,0.6 z m 11.27,-15.19 c -3.19,-5.02 -8.81,-7.98 -17.94,-7.98 l -0.16,0 0,0 0,0 -0.17,0 c -9.7,0 -15.34,3.37 -18.37,8.69 -3.03,5.31 -3.51,12.41 -3.53,20 0,8.67 0.59,16.1 3.7,21.52 3.08,5.41 8.72,8.57 18.2,8.57 l 0,0 0,0 0,0 c 6.97,0 12.35,-2.03 15.88,-5.57 3.7,-3.52 5.59,-8.61 5.82,-14.77 l 0,-0.67 -16.22,0 0,0.72 c 0,2.22 -0.26,4.58 -1.07,6.29 -0.85,1.72 -2.23,2.8 -4.25,2.8 -1.72,0 -2.64,-0.51 -3.47,-1.39 -2.36,-2.57 -2.68,-8.74 -2.68,-13.55 l 0,0 0,0 27.95,0 0,-0.62 c 0,-1.44 0.16,-2.82 0.16,-4.16 0,-7.87 -0.82,-14.74 -4.03,-19.74"/>
    <path d="m -460.61,256.84 c -1.28,0 -2.23,-0.21 -2.97,-0.7 -1.06,-0.74 -1.89,-2.26 -2.42,-5.33 -0.48,-3.03 -0.68,-7.45 -0.68,-13.72 l 0,0 0,-0.24 c 0,-5.59 0.16,-9.83 1,-12.5 0.45,-1.38 1.03,-2.34 1.82,-2.94 0.77,-0.6 1.78,-0.94 3.25,-0.94 2.14,0 3.46,0.59 4.39,2.08 0.97,1.5 1.45,4.1 1.46,8.11 l 0,0 0,0.66 15.96,0 0,-0.66 c 0,0 0,0 0,0 0,-7.3 -1.97,-12.69 -5.71,-16.25 -3.79,-3.54 -9.26,-5.17 -16.09,-5.17 l 0,0 -0.16,0 c -9.71,0 -15.34,3.37 -18.37,8.69 -3.02,5.31 -3.52,12.41 -3.52,20 0,8.67 0.59,16.1 3.68,21.52 3.09,5.4 8.72,8.57 18.2,8.57 l 0.16,0 0,0 c 6.94,0 12.44,-1.64 16.25,-5.29 3.79,-3.64 5.75,-9.22 5.75,-16.8 l 0,0 0,-0.66 -15.93,0 0,0.66 0,0 c 0,3.52 -0.56,6.31 -1.59,8.16 -1.04,1.81 -2.45,2.71 -4.48,2.73"/>
    <path d="m -552.08,266.91 0,-75.04 -14.4,0 0,75.04 0.67,0 13.73,0 z"/>
    <path d="m -406.09,224.06 c 0.92,2.92 1.05,7.24 1.05,12.99 0,8.42 -0.34,13.54 -1.34,16.56 -1.01,3.02 -2.73,3.95 -5.42,3.95 l 0,0 c -2.7,0 -4.42,-0.92 -5.43,-3.95 -1.02,-3.02 -1.36,-8.14 -1.36,-16.56 0,-5.75 0.17,-10.07 1.04,-12.99 0.9,-2.91 2.63,-4.38 5.75,-4.37 3.13,0 4.87,1.46 5.76,4.37 m -5.85,-14.82 c -9.71,0 -15.34,3.37 -18.36,8.67 -3.05,5.33 -3.54,12.44 -3.54,20.02 0,8.67 0.6,16.1 3.69,21.52 3.08,5.41 8.71,8.57 18.21,8.57 l 0.16,0 0.17,0 0,0 c 9.49,0 15.13,-3.17 18.21,-8.58 3.05,-5.41 3.66,-12.84 3.66,-21.51 0,-7.58 -0.52,-14.69 -3.52,-20.02 -3.02,-5.3 -8.65,-8.67 -18.35,-8.67 l -0.17,0 0,0 0,0 -0.16,0 z"/>
    <path d="m -356.09,236.85 c 0,8.42 -0.33,13.54 -1.35,16.55 -1,3.03 -2.73,3.96 -5.41,3.96 l 0,0 c -0.46,0 -0.91,0 -1.32,-0.13 -2.17,-0.3 -3.56,-1.58 -4.39,-4.68 -0.8,-3.08 -1.08,-8.03 -1.08,-15.73 0,-5.26 0.16,-9.34 0.82,-12.22 0.71,-2.87 2.06,-4.58 4.51,-5.01 0.45,-0.18 0.92,-0.18 1.46,-0.18 3.13,0 4.85,1.5 5.78,4.4 0.88,2.89 1.01,7.22 1.01,12.97 m -10.04,-27.43 c -0.37,0 -0.71,0 -1.08,0 -4.38,0 -9.05,1.97 -12.28,5.72 -0.71,0.8 -1.34,1.69 -1.88,2.62 -3.02,5.32 -3.5,12.42 -3.54,20 0,8.67 0.59,16.12 3.71,21.53 2.71,4.69 7.71,8.52 13.78,8.52 0.47,0 0.99,0 1.5,-0.13 3.96,-0.42 6.47,-1.92 9.01,-4.95 l 0.17,-0.13 0,21.7 14.83,0 0,-74.2 -14.13,0 0,4.65 -0.16,-0.16 c -2.47,-3.5 -5.84,-4.88 -9.93,-5.2"/>
    <path d="m -162.47,215.61 0,-5.38 -14.34,0 0,56.61 15,0 0,-32.23 0,-0.29 c 0,-2.52 0.26,-5.42 1.45,-7.63 1.31,-2.24 3.68,-3.95 9.08,-3.99 0.52,0 1.18,0 1.84,0 l 0.79,0 0,-13.67 -0.92,0 c -9.74,-0.17 -12.9,6.45 -12.9,6.45"/>
    <path d="m -199.05,223.98 c 0.92,2.9 1.06,7.24 1.06,12.97 0,8.43 -0.27,13.54 -1.32,16.57 -0.92,3.01 -2.76,3.95 -5.39,3.95 l 0,0 c -2.77,0 -4.48,-0.92 -5.4,-3.95 -1.05,-3.03 -1.45,-8.14 -1.45,-16.57 0,-5.73 0.27,-10.07 1.06,-12.97 0.92,-2.91 2.63,-4.39 5.79,-4.39 3.15,0 4.86,1.48 5.78,4.39 m -5.92,-14.82 c -9.6,0 -15.26,3.35 -18.29,8.69 -3.02,5.31 -3.55,12.42 -3.55,19.99 0,8.65 0.53,16.11 3.69,21.51 3.02,5.41 8.68,8.58 18.15,8.58 l 0.14,0 0,0 0,0 c 9.47,0 15.13,-3.17 18.29,-8.58 3.02,-5.4 3.55,-12.86 3.55,-21.51 0,-7.57 -0.4,-14.68 -3.42,-19.99 -3.03,-5.34 -8.69,-8.69 -18.42,-8.69 l -0.14,0 0,0 0,0 -0.13,0 z"/>
    <path d="m -305.36,224.38 c 0,-1.78 0.25,-3.18 1.04,-4.01 0.85,-0.92 2.06,-1.13 3.29,-1.13 1.35,0 2.42,0.46 3.09,1.17 0.98,1.02 1.35,2.16 1.38,6.06 l 0,0.97 15.54,0 c 0,0 0.26,-1.67 0.26,-2.16 l 0,0 c 0,-5.59 -2.37,-9.68 -5.84,-12.3 -3.5,-2.62 -8.21,-3.79 -13.05,-3.79 -4.81,0 -10.06,0.91 -14.2,3.41 -4.13,2.45 -7.11,6.59 -7.11,12.74 l 0,0 0,0 c 0,4.55 1.71,7.89 4.22,10.36 3.76,3.78 9.27,5.77 13.73,7.94 2.24,1.08 4.23,2.18 5.59,3.51 1.36,1.34 2.18,2.83 2.18,4.83 0,3.74 -2.24,5.17 -4.99,5.17 -2.53,0 -3.7,-0.88 -4.45,-2.38 -0.54,-1.24 -0.67,-2.39 -0.67,-4.82 0,-1.05 0,-2.25 0,-2.25 l -15.62,0 c 0,0 -0.17,2.04 -0.17,2.7 l 0,0.13 c 0,6.94 2.17,11.4 5.96,14.02 3.82,2.61 9.04,3.36 15.2,3.38 l 0,0 c 6.2,0 11.25,-1.86 14.76,-4.99 3.54,-3.13 5.51,-7.54 5.51,-12.51 l 0,0 0,0 c 0,-4.59 -1.71,-8.07 -4.21,-10.75 -3.79,-4 -9.27,-6.32 -13.76,-8.44 -2.25,-1.06 -4.26,-2.09 -5.63,-3.21 -1.4,-1.13 -2.08,-2.23 -2.12,-3.62"/>
    <path d="m -247.99,252.49 c -0.93,3.1 -2.24,4.37 -4.48,4.7 -0.39,0.13 -0.79,0.13 -1.31,0.13 l 0,0 c -2.64,0 -4.35,-0.93 -5.4,-3.94 -1.05,-3.02 -1.31,-8.15 -1.31,-16.58 0,-5.74 0.13,-10.07 1.05,-12.98 0.92,-2.89 2.63,-4.39 5.66,-4.38 0.52,0 1.05,0 1.57,0.17 2.37,0.45 3.69,2.13 4.48,5.02 0.66,2.88 0.79,6.96 0.79,12.21 0,7.69 -0.26,12.65 -1.05,15.73 m 12.76,-34.87 0,0 c -0.53,-0.93 -1.19,-1.81 -1.84,-2.63 -3.16,-3.73 -7.9,-5.72 -12.24,-5.72 -0.39,0 -0.79,0 -1.05,0 -4.21,0.29 -7.5,1.7 -10,5.2 l -0.13,0.15 0,-4.63 -14.22,0 0,74.21 14.87,0 0,-16.94 0,-4.75 0.27,0.13 c 2.5,3.02 5,4.51 8.94,4.92 0.53,0 1.06,0.13 1.45,0.13 6.05,0 11.05,-3.83 13.82,-8.54 3.16,-5.39 3.68,-12.84 3.68,-21.53 0,-7.57 -0.52,-14.67 -3.55,-20 l 0,0 z"/>
    <path d="m -129.05,194.23 -1.05,0.46 -14.08,7.16 0,52.6 c 0,1.79 0.4,4.99 2.5,7.81 2.11,2.8 5.53,5.13 11.58,5.13 5.53,0 8.29,-0.73 8.29,-0.73 l 0,-10.92 c 0,0 -1.32,0.46 -3.29,0.46 -2.24,0 -3.03,-0.55 -3.42,-1.39 -0.53,-0.82 -0.53,-2.21 -0.53,-3.99 l 0,-29.1 7.5,0 0,-11.49 -7.5,0 0,-16 z"/>
    <path d="m -101.15,210.23 -14.34,0 0,56.61 0.65,0 13.69,0 0,-56.61 z"/>
    <path d="m -101.15,204.09 0,-12.31 -14.34,0 0,12.31 0.65,0 13.69,0 z"/>
    <path d="m -75.098,208.47 c 0,-1.78 0,-3.16 0.526,-3.99 0.395,-0.84 1.184,-1.38 3.421,-1.38 1.974,0 3.29,0.46 3.29,0.46 l 0,-10.92 c 0,0 -2.764,-0.71 -8.29,-0.71 -5.921,0 -8.684,2.3 -10.79,5.12 -2.236,2.81 -2.631,6 -2.631,7.79 l 0,5.39 -6.579,0 0,11.49 6.447,0 0,45.12 14.606,0 0,-45.12 6.71,0 0,-11.49 -6.71,0 0,-1.76 z"/>
   </g>
   <g transform="matrix(1.3348,0,0,1.3348,97.244,16.093)">
    <path d="m 174.14,68.63 c 10.03,-2.11 19.27,-7.62 26,-15.35 2.62,4.33 5.35,8.6 7.72,13.07 -1.6,2.15 -4.4,3.24 -6.65,4.67 -10.86,6.23 -23.89,9.06 -36.23,6.24 -6.77,-1.91 -13.12,-5.38 -18.21,-10.25 8.92,2.18 18.27,3.65 27.37,1.62 z"/>
    <path d="m 186.28,99.55 c 2.04,-11.69 11.28,-20.94 21.88,-25.52 -4.01,3.47 -7.77,7.55 -9.32,12.75 -2.06,6.71 -1.51,14.72 3.13,20.26 3.71,4.45 9.39,6.54 14.8,8.11 15.48,4.03 32.02,3.75 46.91,10.09 11.61,4.72 20.02,15.8 22.56,27.94 2.03,11.84 -0.55,23.89 -4.78,34.96 -6.31,16.49 -15.34,31.74 -24.48,46.79 -22.48,36.17 -46.71,71.27 -67.64,108.38 -0.54,0.95 -1.32,1.65 -2.33,2.11 9.38,-20.78 18.9,-41.58 26.14,-63.24 7.89,-22.84 12.62,-46.99 11.79,-71.22 -1.06,-13.58 -2.74,-27.37 -8.02,-40.04 -5.44,-13.6 -14.41,-25.3 -22.01,-37.7 -6.19,-9.95 -10.92,-21.78 -8.63,-33.67 z"/>
    <path d="m 207.88,100.13 c -3.73,-6.2 -2.28,-14.18 1.16,-20.19 -0.14,7.09 4.34,13.79 11.16,15.94 -0.67,3.75 -0.93,7.55 -1.61,11.29 -4.1,-1.32 -8.43,-3.14 -10.71,-7.04 z"/>
    <path d="m 137.41,157.17 c 15.58,-2.77 31.99,1.58 44.94,10.46 19.96,13.89 31.68,38.19 31.16,62.39 0.31,14.77 -2.25,29.42 -5.82,43.7 -3.89,14.86 -8.95,29.48 -15.99,43.16 -0.38,1.02 -1.28,1.6 -2.15,2.15 5.61,-17.1 10.68,-34.82 9.99,-53 -0.45,-11.34 -2.81,-23.33 -10.26,-32.26 -5.95,-7.3 -16.69,-10.74 -25.52,-6.9 -11.15,4.87 -15.84,18.8 -12.75,30.06 0.92,3.95 3.16,7.38 5.16,10.85 -13.83,-6.59 -21.78,-21.94 -22.75,-36.79 -0.72,-6.98 0.82,-13.85 1.4,-20.76 -5.79,12.18 -9.17,26.41 -4.71,39.57 4.22,14.18 16.01,24.22 28.1,31.82 -16.71,-3.57 -32.56,-13.39 -41.82,-27.96 -6.23,-9.68 -8.54,-21.31 -8.55,-32.68 0.58,-7.24 1.42,-14.48 3.25,-21.52 -5.59,7.02 -7.85,16.08 -9.11,24.81 -1.93,14.96 2.9,30.57 12.73,41.98 9.13,10.88 21.61,18.3 34.49,23.93 3.35,1.56 7.08,2.31 10.16,4.42 -20.62,-2.36 -41.43,-9.81 -56.51,-24.51 -11.73,-11.24 -18.77,-26.87 -20.62,-42.91 -1.84,-14.57 1.48,-29.89 9.95,-41.97 10.27,-15.17 27.32,-25.04 45.23,-28.04 z"/>
   </g>
  </g>
  <g transform="matrix(1.3348,0,0,1.3348,97.244,16.093)">
   <path d="m 259.59,249.91 c 50.83,14.25 95.66,48.95 122.38,94.46 -40.8,0.11 -81.6,0.1 -122.39,0 0,-31.49 0,-62.98 0,-94.47 z" style="fill:#c31328"/>
   <path d="m 17.32,344.39 c 17.86,-29.73 42.95,-55.12 72.75,-72.93 12.85,14.92 30.74,24.84 49.7,29.66 0.17,14.42 0,28.86 0.1,43.29 -40.84,0 -81.69,0 -122.53,0 z" style="fill:#1b3b84"/>
  </g>
 </g>
</svg>