<?xml version="1.0" encoding="UTF-8" standalone="no"?>
<svg
   xmlns:dc="http://purl.org/dc/elements/1.1/"
   xmlns:cc="http://creativecommons.org/ns#"
   xmlns:rdf="http://www.w3.org/1999/02/22-rdf-syntax-ns#"
   xmlns:svg="http://www.w3.org/2000/svg"
   xmlns="http://www.w3.org/2000/svg"
   xmlns:sodipodi="http://sodipodi.sourceforge.net/DTD/sodipodi-0.dtd"
   xmlns:inkscape="http://www.inkscape.org/namespaces/inkscape"
   width="20mm"
   height="20mm"
   viewBox="0 0 19.999999 20"
   version="1.1"
   id="svg8"
   inkscape:version="1.0.2-2 (e86c870879, 2021-01-15)"
   sodipodi:docname="playingCardEnsign.svg">
  <defs
     id="defs2" />
  <sodipodi:namedview
     id="base"
     pagecolor="#7e99b9"
     bordercolor="#f72585"
     borderopacity="1"
     inkscape:pageopacity="0.4"
     inkscape:pageshadow="2"
     inkscape:zoom="4"
     inkscape:cx="5.228878"
     inkscape:cy="20.809687"
     inkscape:document-units="mm"
     inkscape:current-layer="layer3"
     showgrid="true"
     units="mm"
     inkscape:pagecheckerboard="true"
     borderlayer="true"
     inkscape:showpageshadow="true"
     inkscape:window-width="1920"
     inkscape:window-height="1017"
     inkscape:window-x="-8"
     inkscape:window-y="598"
     inkscape:window-maximized="1"
     inkscape:document-rotation="0"
     fit-margin-top="0"
     fit-margin-left="0"
     fit-margin-right="0"
     fit-margin-bottom="0"
     showborder="true"
     inkscape:snap-page="false"
     inkscape:snap-global="true"
     inkscape:snap-bbox="true"
     inkscape:snap-grids="true">
    <inkscape:grid
       type="xygrid"
       id="grid901"
       spacingx="2.2222199"
       spacingy="2.2222221"
       empspacing="3"
       units="mm"
       empcolor="#00d6e5"
       empopacity="0.8"
       color="#00c2d1"
       opacity="0.4"
       originx="0"
       originy="0" />
    <inkscape:grid
       type="xygrid"
       id="grid903"
       spacingx="2.4999999"
       empspacing="2"
       spacingy="2.4999999"
       color="#ffffff"
       opacity="0.10196078"
       empcolor="#ffffff"
       empopacity="0.4"
       units="mm" />
    <sodipodi:guide
       position="13.333319,6.666667"
       orientation="-18.897638,18.897638"
       id="guide1012" />
  </sodipodi:namedview>
  <metadata
     id="metadata5">
    <rdf:RDF>
      <cc:Work
         rdf:about="">
        <dc:format>image/svg+xml</dc:format>
        <dc:type
           rdf:resource="http://purl.org/dc/dcmitype/StillImage" />
        <dc:title />
      </cc:Work>
    </rdf:RDF>
  </metadata>
  <g
     inkscape:groupmode="layer"
     id="layer3"
     inkscape:label="glyph">
    <path
       id="pathCoeur"
       style="stroke-width:1.40731;fill:#ff0000;stroke:none"
       inkscape:label="Coeur"
       d="M 24.140625 9.6484375 C 14.58199 9.6484375 7.0730205 16.684653 10.486328 30.757812 C 13.749805 44.20991 28.236787 51.238422 36.664062 64.123047 L 60.466797 40.320312 C 62.58466 37.431465 64.239298 34.320134 65.103516 30.757812 C 68.516259 16.684653 61.007712 9.6484375 51.449219 9.6484375 C 41.892132 9.6484375 39.160015 16.686074 37.794922 23.722656 C 36.429823 16.686074 33.697707 9.6484375 24.140625 9.6484375 z "
       transform="scale(0.26458333)" />
    <path
       id="pathTrefle"
       style="stroke-width:1.40731;fill:#00ff00;stroke:none"
       d="M 37.794922 9.6484375 C 31.13691 9.6484375 25.732422 15.322907 25.732422 22.314453 C 25.790124 26.713723 28.060943 30.432164 30.423828 33.96875 C 27.790739 31.97599 24.862763 30.770478 21.710938 30.757812 C 15.052362 30.757812 9.6484375 36.43228 9.6484375 43.423828 C 9.6484375 50.415376 15.052362 56.089844 21.710938 56.089844 C 27.104618 55.999778 31.419367 52.226777 35.658203 49.054688 C 34.899659 58.530148 33.358589 63.850137 24.392578 65.941406 L 34.845703 65.941406 L 41.839844 58.947266 C 40.724586 56.349994 40.254023 53.081758 39.931641 49.054688 C 42.13698 50.94519 44.403533 52.671305 46.833984 53.953125 L 64.085938 36.701172 C 61.950864 33.136659 58.182265 30.757813 53.878906 30.757812 C 50.646303 30.757812 47.853989 32.246195 45.166016 33.96875 C 47.839922 30.468754 49.601287 26.692613 49.857422 22.314453 C 49.857422 15.322907 44.452934 9.6484375 37.794922 9.6484375 z "
       transform="scale(0.26458333)"
       inkscape:label="Trefle" />
    <path
       id="pathPique"
       style="fill:#ffff00;stroke-width:1.40731;stroke:none"
       d="M 37.789062 9.6484375 C 30.752485 20.925266 15.272144 25.148706 13.205078 36.037109 C 11.154618 46.836855 16.917453 51.839282 25.519531 51.869141 C 30.753343 51.887437 33.959289 49.730727 35.722656 46.810547 C 34.957078 57.742577 33.865233 63.685478 23.716797 65.941406 L 34.845703 65.941406 L 41.96875 58.818359 C 40.638039 55.777672 40.208571 51.824769 39.857422 46.810547 C 41.492368 49.518062 44.369507 51.566103 48.951172 51.835938 L 62.677734 38.109375 C 62.607202 37.442674 62.509211 36.754775 62.373047 36.037109 C 60.305706 25.148706 44.825643 20.924984 37.789062 9.6484375 z "
       transform="scale(0.26458333)"
       inkscape:label="Pique" />
    <path
       id="PathCarreau"
       style="fill:#0000ff;fill-opacity:1;stroke:none;stroke-width:0.498656;stroke-linecap:round;stroke-linejoin:round;stroke-miterlimit:4;stroke-dasharray:1.99462, 1.99462000000000006;stroke-dashoffset:0;stroke-opacity:1"
       d="M 37.794922,9.6484375 C 32.165653,25.128914 25.128916,32.165661 9.6484375,37.794922 24.393218,43.156658 31.474231,49.81312 36.978516,63.808594 L 63.808594,36.978516 C 49.81312,31.474237 43.156658,24.393216 37.794922,9.6484375 Z"
       sodipodi:nodetypes="ccccc"
       transform="scale(0.26458333)"
       inkscape:label="Carreau" />
  </g>
</svg>
